<?xml version="1.0" standalone="no"?>
<!DOCTYPE svg PUBLIC "-//W3C//DTD SVG 1.1//EN" "http://www.w3.org/Graphics/SVG/1.1/DTD/svg11.dtd" >
<svg xmlns="http://www.w3.org/2000/svg">
<metadata></metadata>
<defs>
<font id="corsica_lxbold" horiz-adv-x="1167" >
<font-face units-per-em="2048" ascent="1587" descent="-461" />
<missing-glyph horiz-adv-x="378" />
<glyph unicode="&#xfb01;" horiz-adv-x="1290" d="M35 831v271h133v57q0 174 127 301q130 127 309 127q190 0 400 -76v-329q-207 104 -400 104q-50 0 -84.5 -36.5t-34.5 -90.5v-57h676v-1102h-317v831h-359v-831h-317v831h-133z" />
<glyph unicode="&#xfb02;" horiz-adv-x="1290" d="M35 831v271h133v57q0 174 127 301t307 127q239 0 559 -110v-1477h-317v1255q-130 31 -242 31q-47 0 -82 -38t-35 -89v-57h258v-271h-258v-831h-317v831h-133z" />
<glyph horiz-adv-x="0" />
<glyph horiz-adv-x="682" />
<glyph unicode=" "  horiz-adv-x="378" />
<glyph unicode="&#x09;" horiz-adv-x="378" />
<glyph unicode="&#xa0;" horiz-adv-x="378" />
<glyph unicode="!" horiz-adv-x="628" d="M131 172q0 78 52.5 131t127.5 53t130 -54.5t55 -129.5q0 -77 -54.5 -129.5t-130.5 -52.5q-75 0 -127.5 52t-52.5 130zM154 395v1063h315v-1063h-315z" />
<glyph unicode="&#x22;" horiz-adv-x="817" d="M68 1458h313l-37 -629h-231zM436 1458h314l-45 -629h-230z" />
<glyph unicode="#" horiz-adv-x="1181" d="M63 344v299h181l16 107h-145v303h192l55 325h302l-52 -325h82l54 325h307l-54 -325h119v-303h-166l-16 -107h129v-299h-178l-55 -344h-304l54 344h-82l-53 -344h-306l52 344h-132zM514 606h135l33 180h-139z" />
<glyph unicode="$" horiz-adv-x="1155" d="M111 1038q0 189 116 308q120 120 305 135v121h107v-123q189 -15 324 -123v-379q-189 151 -324 178v-248q16 -8 55 -26.5t54 -26.5q48 -25 102 -63q64 -43 98 -86q38 -44 63 -111.5t25 -138.5q0 -182 -110 -310q-109 -127 -287 -157v-123h-107v112q-239 3 -401 152v401 q66 -76 178 -149q121 -77 223 -86v283q-188 89 -245 131q-176 126 -176 329zM440 1061q0 -50 92 -103v203q-39 -8 -65.5 -35.5t-26.5 -64.5zM639 313q70 34 70 105q0 56 -70 102v-207z" />
<glyph unicode="%" horiz-adv-x="1591" d="M55 1075q0 393 332 393q328 0 328 -393q0 -391 -328 -391q-332 0 -332 391zM276 1075q0 -182 111 -182t111 182q0 185 -111 185t-111 -185zM338 66l713 1386l176 -94l-711 -1389zM874 379q0 391 330 391q164 0 248 -93t84 -298q0 -391 -332 -391q-330 0 -330 391z M1096 379q0 -182 108 -182q113 0 113 182t-113 182q-108 0 -108 -182z" />
<glyph unicode="&#x26;" horiz-adv-x="1486" d="M106 451q0 100 39 174q40 78 88 123q39 37 134 104q-111 123 -111 256q0 167 115 270q114 105 282 105q161 0 277 -107q117 -105 117 -270q0 -192 -209 -342l112 -125l117 180h348l-260 -403l385 -416h-395l-154 166q-186 -189 -401 -189q-208 0 -346 138t-138 336z M428 430q0 -50 50 -91.5t106 -41.5q54 0 111.5 26.5t92.5 67.5l-210 230q-150 -89 -150 -191zM547 1133q0 -31 26 -74l29 -39q31 -31 37 -39q50 26 81.5 69.5t31.5 86.5q0 37 -29 63.5t-70 26.5q-40 0 -73 -30.5t-33 -63.5z" />
<glyph unicode="'" horiz-adv-x="456" d="M68 1458h319l-43 -629h-231z" />
<glyph unicode="(" horiz-adv-x="765" d="M86 575q0 289 92 519q57 137 76 176l98 178l19 35h313q-82 -123 -133 -226q-49 -96 -100 -288q-48 -194 -48 -394q0 -199 48 -393q51 -192 100 -288q51 -99 133 -226h-313q-140 248 -193 389q-92 250 -92 518z" />
<glyph unicode=")" horiz-adv-x="765" d="M82 -332q72 111 131 226q55 107 100 288q49 186 49 393q0 208 -49 394q-45 181 -100 288q-58 115 -131 226h313q140 -248 193 -389q92 -250 92 -519q0 -288 -92 -518q-58 -140 -78 -176q-10 -21 -96 -178l-19 -35h-313z" />
<glyph unicode="*" horiz-adv-x="991" d="M102 1071l86 264l197 -98l-27 221h277l-29 -221l199 98l84 -264l-213 -45l149 -154l-225 -163l-104 188l-105 -188l-223 163l149 154z" />
<glyph unicode="+" d="M76 354v308h354v356h305v-356h357v-308h-357v-354h-305v354h-354z" />
<glyph unicode="," horiz-adv-x="598" d="M-25 -334q113 331 154 606l348 25q-127 -394 -295 -664z" />
<glyph unicode="-" horiz-adv-x="716" d="M68 469v297h581v-297h-581z" />
<glyph unicode="." horiz-adv-x="604" d="M121 170q0 75 53.5 129.5t126.5 54.5q75 0 128.5 -53t53.5 -131t-52 -129t-130 -51q-75 0 -127.5 51.5t-52.5 128.5z" />
<glyph unicode="/" horiz-adv-x="962" d="M23 -258l639 1763l278 -102l-639 -1763z" />
<glyph unicode="0" d="M68 664v135q0 684 518 684q246 0 380 -169t134 -515v-135q0 -348 -133 -517.5t-381 -169.5q-518 0 -518 687zM397 682q0 -205 47 -296t142 -91q93 0 138.5 90.5t45.5 296.5v96q0 206 -45.5 295.5t-138.5 89.5q-95 0 -142 -90t-47 -295v-96z" />
<glyph unicode="1" d="M219 717v409l399 332h277v-1458h-324v1001z" />
<glyph unicode="2" d="M125 0v283l430 477q158 178 158 239q0 67 -48 114.5t-116 47.5q-176 0 -391 -188v385q183 125 385 125q205 0 350 -142q147 -138 147 -342q0 -106 -57.5 -208.5t-187.5 -245.5l-207 -228h454v-317h-917z" />
<glyph unicode="3" d="M141 35v346q163 -82 369 -82q87 0 136.5 43t49.5 121q0 77 -75.5 117.5t-202.5 40.5h-86v299h106q96 0 156.5 33t60.5 83q0 59 -40 92t-105 33q-172 0 -352 -82v346q171 58 352 58q203 0 338 -129q137 -128 137 -326q0 -140 -106 -246q147 -111 147 -309 q0 -214 -145 -356q-146 -140 -371 -140q-183 0 -369 58z" />
<glyph unicode="4" d="M29 264v295l622 899h314v-878h143v-316h-143v-264h-328v264h-608zM354 563h299v232q0 155 9 243h-13q-40 -101 -96 -180z" />
<glyph unicode="5" d="M109 678l108 780h774v-317h-495l-21 -148q36 8 66 8q228 0 368 -143q142 -145 142 -364q0 -205 -158 -363q-157 -154 -373 -154q-196 0 -403 74v352q205 -108 403 -108q81 0 141 59.5t60 139.5q0 91 -49.5 143.5t-136.5 52.5q-131 0 -256 -94z" />
<glyph unicode="6" d="M61 498q0 103 39 195.5t123 209.5l398 555h387l-318 -450q179 -15 297 -166q119 -149 119 -342q0 -210 -148 -367q-147 -156 -372 -156q-221 0 -373 152t-152 369zM391 494q0 -81 54.5 -141t138.5 -60q79 0 134.5 57t55.5 139q0 86 -56 145.5t-134 59.5q-76 0 -135 -59 q-58 -58 -58 -141z" />
<glyph unicode="7" d="M102 0l605 1141h-564v317h1010v-180l-682 -1278h-369z" />
<glyph unicode="8" d="M84 457q0 91 45 182q45 97 115 154q-111 114 -111 254q0 189 133 313q135 123 320 123q182 0 315 -127t133 -312q0 -56 -31.5 -129t-78.5 -122q69 -60 114 -155.5t45 -180.5q0 -203 -145 -342q-144 -138 -352 -138q-215 0 -359 138q-143 137 -143 342zM399 463 q0 -82 57 -135.5t132 -53.5q69 0 124.5 54.5t55.5 130.5q0 79 -56 133.5t-128 54.5q-74 0 -129.5 -55.5t-55.5 -128.5zM434 1047q0 -53 46 -98.5t106 -45.5t103.5 43.5t43.5 100.5q0 60 -42.5 104.5t-102.5 44.5q-63 0 -108.5 -44t-45.5 -105z" />
<glyph unicode="9" d="M61 958q0 210 148 367q152 158 373 158q219 0 370 -154q152 -152 152 -366q0 -109 -38.5 -200.5t-123.5 -209.5l-397 -553h-389l319 446q-175 15 -295 168q-119 155 -119 344zM393 969q0 -86 56.5 -146.5t134.5 -60.5q76 0 132 59.5t56 143.5q0 78 -54.5 138t-133.5 60 t-135 -57t-56 -137z" />
<glyph unicode=":" horiz-adv-x="604" d="M121 170q0 75 53.5 129.5t126.5 54.5q75 0 128.5 -53t53.5 -131t-52 -129t-130 -51q-75 0 -127.5 51.5t-52.5 128.5zM121 932q0 75 53.5 129.5t126.5 54.5q75 0 128.5 -53t53.5 -131t-52 -129t-130 -51q-75 0 -127.5 51.5t-52.5 128.5z" />
<glyph unicode=";" horiz-adv-x="604" d="M-25 -334q113 331 154 606l348 25q-127 -394 -295 -664zM121 932q0 75 53.5 129.5t126.5 54.5q75 0 128.5 -53t53.5 -131t-52 -129t-130 -51q-75 0 -127.5 51.5t-52.5 128.5z" />
<glyph unicode="&#x3c;" d="M74 393v232l1020 434v-330l-525 -221l525 -221v-330z" />
<glyph unicode="=" d="M76 150v309h1016v-309h-1016zM76 559v305h1016v-305h-1016z" />
<glyph unicode="&#x3e;" d="M74 -43v330l520 221l-520 221v330l1018 -434v-232z" />
<glyph unicode="?" horiz-adv-x="1036" d="M256 1081v351q152 51 256 51q179 0 299 -117q121 -115 121 -297q0 -75 -32 -145t-83 -121q-23 -23 -69 -64t-71 -65.5t-47 -59t-22 -63.5v-156h-313v197q0 73 47 151t113 134q161 141 161 198q0 48 -29 74.5t-75 26.5q-135 0 -256 -95zM268 172q0 77 54 131q56 54 131 54 t129 -54t54 -131t-54 -131q-51 -51 -129 -51q-80 0 -131 51q-54 54 -54 131z" />
<glyph unicode="@" horiz-adv-x="2043" d="M92 532q0 422 277 687q276 264 690 264q239 0 442 -90q200 -89 324 -269q125 -177 125 -415q0 -310 -172 -521q-169 -211 -367 -211q-136 0 -194 107q-131 -107 -293 -107q-205 0 -322 144q-115 145 -115 350q0 231 140 403q140 168 370 168q128 0 265 -98l8 76h274 l-92 -674q-4 -28 -4 -61q0 -12 10.5 -25.5t20.5 -13.5q89 3 141 121q53 121 53 295q0 279 -160.5 417t-457.5 138q-294 0 -492 -195q-196 -193 -196 -490q0 -302 184 -507q187 -205 530 -205v-264q-231 0 -422.5 77.5t-316.5 214.5q-122 135 -186 310.5t-64 373.5zM774 481 q0 -106 46.5 -170.5t129.5 -64.5q101 0 168 88t82 196l17 136q-81 100 -220 100q-104 0 -163.5 -76t-59.5 -209z" />
<glyph unicode="A" horiz-adv-x="1546" d="M18 0l633 1458h244l633 -1458h-363l-116 297h-551l-117 -297h-363zM612 596h318l-76 207q-23 61 -74 231h-18q0 -2 -27 -94q-28 -96 -45 -139z" />
<glyph unicode="B" horiz-adv-x="1232" d="M145 0v1458h461q240 0 367 -127t127 -311q0 -157 -115 -260q78 -55 121 -137.5t43 -173.5q0 -211 -143 -330q-140 -119 -353 -119h-508zM467 307h176q80 0 128 38t48 108q0 67 -49 103t-135 36h-168v-285zM467 885h156q71 0 112 34.5t41 100.5q0 60 -45.5 96.5 t-114.5 36.5h-149v-268z" />
<glyph unicode="C" horiz-adv-x="1263" d="M86 731q0 315 215 533q216 219 524 219q162 0 349 -94v-390q-186 162 -349 162q-182 0 -295 -125q-114 -126 -114 -305q0 -181 114 -307q113 -125 295 -125q166 0 349 162v-389q-188 -95 -349 -95q-307 0 -524 220q-215 218 -215 534z" />
<glyph unicode="D" horiz-adv-x="1423" d="M145 0v1458h406q193 0 348.5 -61t249.5 -168q190 -211 190 -500q0 -286 -190 -500q-94 -107 -249.5 -168t-348.5 -61h-406zM469 319h45q235 0 364.5 105.5t129.5 304.5t-129.5 305.5t-364.5 106.5h-45v-822z" />
<glyph unicode="E" horiz-adv-x="1153" d="M145 0v1458h885v-311h-561v-258h545v-301h-545v-277h561v-311h-885z" />
<glyph unicode="F" horiz-adv-x="1054" d="M145 0v1458h826v-311h-502v-244h483v-301h-483v-602h-324z" />
<glyph unicode="G" horiz-adv-x="1443" d="M86 729q0 317 215 535q216 219 524 219q181 0 396 -107v-375q-29 22 -68 46q-35 24 -145 69q-102 45 -183 45q-179 0 -297 -127q-114 -126 -114 -305q0 -178 114 -301q118 -121 297 -121q90 0 148 10v220h-297v301h622v-764q-256 -86 -473 -86q-310 0 -526 213 q-213 213 -213 528z" />
<glyph unicode="H" horiz-adv-x="1386" d="M145 0v1458h324v-534h449v534h323v-1458h-323v602h-449v-602h-324z" />
<glyph unicode="I" horiz-adv-x="614" d="M145 0v1458h324v-1458h-324z" />
<glyph unicode="J" horiz-adv-x="866" d="M66 6v344q77 -41 157 -41q78 0 125 50.5t47 146.5v952h326v-960q0 -251 -143 -385q-142 -136 -357 -136q-53 0 -155 29z" />
<glyph unicode="K" horiz-adv-x="1355" d="M145 0v1458h322v-340q0 -121 -10 -241h12q115 177 133 198l311 383h433l-598 -692l614 -766h-424l-412 520l-59 -65v-455h-322z" />
<glyph unicode="L" horiz-adv-x="968" d="M145 0v1458h324v-1139h453v-319h-777z" />
<glyph unicode="M" horiz-adv-x="1855" d="M74 0l141 1458h332l381 -788l381 788h331l142 -1458h-332l-64 694q-1 5 -2 25t-3.5 68t-4.5 90h-10q-41 -113 -76 -195l-303 -633h-119l-303 633q-35 82 -76 195h-12q0 -102 -8 -183l-63 -694h-332z" />
<glyph unicode="N" horiz-adv-x="1456" d="M145 0v1458h265l481 -667q29 -44 92 -146h10q-8 117 -8 170v643h326v-1458h-236l-506 698q-38 51 -98 150h-8q6 -99 6 -156v-692h-324z" />
<glyph unicode="O" horiz-adv-x="1646" d="M86 729q0 317 215 535q216 219 522 219q310 0 523 -219q215 -218 215 -535q0 -316 -215 -534q-212 -218 -523 -218q-307 0 -522 218t-215 534zM414 729q0 -179 114 -305q116 -125 295 -125q180 0 293 125q115 127 115 305t-115 305t-293 127q-180 0 -295 -127 q-114 -126 -114 -305z" />
<glyph unicode="P" horiz-adv-x="1189" d="M145 0v1458h437q261 0 405 -141q146 -140 146 -350q0 -250 -160 -377q-158 -125 -410 -125h-96v-465h-322zM467 784h113q103 0 163 49t60 134q0 79 -61 126.5t-164 47.5h-111v-357z" />
<glyph unicode="Q" horiz-adv-x="1646" d="M86 741q0 310 215 525q214 217 522 217q311 0 523 -215q215 -215 215 -527q0 -267 -187 -442v-10q122 16 164 16h82v-305h-797q-307 0 -522 215q-215 218 -215 526zM414 741q0 -178 114 -301t295 -123q179 0 293 123q115 124 115 301q0 175 -115 299q-113 125 -293 125 q-179 0 -295 -125q-114 -123 -114 -299z" />
<glyph unicode="R" horiz-adv-x="1282" d="M145 0v1458h455q252 0 383 -131q135 -132 135 -332q0 -142 -69 -253.5t-193 -168.5l408 -573h-402l-360 526h-33v-526h-324zM469 829h133q87 0 139 45.5t52 120.5q0 72 -52.5 116t-140.5 44h-131v-326z" />
<glyph unicode="S" horiz-adv-x="1136" d="M111 1038q0 200 131 322q132 123 336 123q225 0 385 -127v-379q-229 186 -404 186q-49 0 -84 -28t-35 -74q0 -39 54.5 -77.5t154.5 -82.5q59 -24 106 -48.5t102.5 -65.5t92.5 -85q37 -46 62 -110q24 -62 24 -131v-6q0 -207 -141 -342q-142 -136 -358 -136 q-234 0 -406 152v401q69 -78 191 -157q128 -78 231 -78q67 0 111.5 34t44.5 89q0 29 -15.5 53.5t-48 45.5t-64 37t-84.5 40.5t-87 42.5q-105 59 -146 88q-69 49 -111 131.5t-42 181.5z" />
<glyph unicode="T" horiz-adv-x="1042" d="M35 1139v319h973v-319h-324v-1139h-326v1139h-323z" />
<glyph unicode="U" horiz-adv-x="1366" d="M145 543v915h322v-903q0 -119 60 -186.5t155 -67.5q93 0 153 68t60 186v903h326v-915q0 -257 -158 -412q-157 -154 -381 -154t-381 154q-156 153 -156 412z" />
<glyph unicode="V" horiz-adv-x="1437" d="M14 1458h355l286 -727q33 -89 56 -182h14q38 149 53 182l291 727h354l-594 -1458h-217z" />
<glyph unicode="W" horiz-adv-x="1890" d="M45 1458h334l121 -713q11 -74 22 -196h17q36 142 61 201l266 661h156l266 -661q32 -75 64 -201h16q9 107 23 196l120 713h334l-246 -1458h-346l-237 567q-40 92 -64 193h-14q-25 -97 -66 -193l-237 -567h-344z" />
<glyph unicode="X" horiz-adv-x="1392" d="M14 0l488 758l-449 700h393l187 -297q36 -63 55 -114h17q22 58 55 110l188 301h393l-448 -698l485 -760h-391l-227 360q-39 53 -55 103h-19q-40 -88 -53 -107l-225 -356h-394z" />
<glyph unicode="Y" horiz-adv-x="1339" d="M14 1458h371l217 -373q29 -61 62 -137h14q15 57 61 135l217 375h369l-491 -860v-598h-326v598z" />
<glyph unicode="Z" horiz-adv-x="1196" d="M39 0v213l530 760q73 106 133 160v12q-110 -4 -188 -4h-420v317h1059v-213l-539 -766q-48 -68 -122 -153v-15q139 8 198 8h467v-319h-1118z" />
<glyph unicode="[" horiz-adv-x="706" d="M158 -367v1909h504v-307h-185v-1296h185v-306h-504z" />
<glyph unicode="\" horiz-adv-x="962" d="M23 1403l278 102l639 -1763l-278 -102z" />
<glyph unicode="]" horiz-adv-x="706" d="M45 -61h184v1296h-184v307h504v-1909h-504v306z" />
<glyph unicode="^" horiz-adv-x="1208" d="M51 588l424 895h254l426 -895h-334l-217 456l-217 -456h-336z" />
<glyph unicode="_" horiz-adv-x="1019" d="M14 -63h992v-261h-992v261z" />
<glyph unicode="`" horiz-adv-x="837" d="M129 1323l133 190l449 -335l-111 -160z" />
<glyph unicode="a" horiz-adv-x="1146" d="M80 332q0 158 119 255t329 97q84 0 172 -18v51q0 49 -53 87t-119 38q-104 0 -168 -21q-75 -21 -155 -63v295q174 73 323 73q213 0 351 -114q139 -115 139 -307v-705h-285l-14 90q-104 -113 -254 -113q-199 0 -292 89t-93 266zM375 350q0 -112 129 -112q90 0 146.5 56 t56.5 138v25q-106 16 -177 16q-73 0 -114 -34t-41 -89z" />
<glyph unicode="b" horiz-adv-x="1308" d="M129 0v1565h317v-523q134 84 267 84q247 0 385 -170q141 -170 141 -407q0 -235 -141 -404q-137 -168 -385 -168q-72 0 -148.5 33.5t-132.5 89.5l-10 -100h-293zM446 414q99 -135 244 -135q104 0 164.5 74t60.5 196q0 123 -61 198.5t-164 75.5q-109 0 -176.5 -78.5 t-67.5 -195.5v-135z" />
<glyph unicode="c" horiz-adv-x="980" d="M72 549q0 249 157 414q159 163 394 163q125 0 258 -71v-363q-125 131 -252 131q-92 0 -164 -78q-70 -76 -70 -196q0 -108 68 -191q70 -79 166 -79q133 0 252 122v-356q-130 -68 -258 -68q-240 0 -396 166q-155 168 -155 406z" />
<glyph unicode="d" horiz-adv-x="1308" d="M70 551q0 235 141 405q144 170 385 170q143 0 266 -108v547h318v-1565h-289l-10 96q-110 -119 -285 -119q-242 0 -385 168q-141 169 -141 406zM393 551q0 -120 62.5 -195t165.5 -75q107 0 174 77.5t67 190.5v141q-102 135 -241 135q-104 0 -166 -76t-62 -198z" />
<glyph unicode="e" horiz-adv-x="1159" d="M70 573q0 252 141 402q142 151 381 151q207 0 350 -149t143 -424q0 -38 -4 -84h-678q12 -97 73 -154t153 -57q184 0 340 78v-303q-165 -56 -340 -56q-247 0 -404 160q-155 158 -155 436zM401 686h383q-7 81 -61.5 132.5t-128.5 51.5q-75 0 -129 -51t-64 -133z" />
<glyph unicode="f" horiz-adv-x="778" d="M35 834v268h133v57q0 174 127 301t307 127q76 0 164 -18v-316q-85 33 -164 33q-50 0 -83.5 -36.5t-33.5 -90.5v-57h258v-268h-258v-834h-317v834h-133z" />
<glyph unicode="g" horiz-adv-x="1280" d="M72 571q0 229 135 392t371 163q148 0 270 -122l12 98h291v-1026q0 -223 -156 -379q-158 -158 -383 -158q-217 0 -409 80v309q210 -88 409 -88q83 0 152 60q70 58 70 153v47q-113 -82 -256 -82q-237 0 -371 162q-135 164 -135 391zM395 571q0 -114 55 -183t152 -69 q103 0 167.5 71.5t64.5 178.5v131q-94 123 -232 123q-97 0 -152 -67.5t-55 -184.5z" />
<glyph unicode="h" horiz-adv-x="1226" d="M129 0v1565h317v-547q108 108 230 108q422 0 422 -491v-635h-318v608q0 215 -164 215q-36 0 -77.5 -22.5t-67.5 -50.5l-25 -23v-727h-317z" />
<glyph unicode="i" horiz-adv-x="575" d="M102 1346q0 75 55 128.5t130 53.5q78 0 132 -53.5t54 -128.5t-55.5 -130t-130.5 -55t-130 55t-55 130zM129 0v1102h317v-1102h-317z" />
<glyph unicode="j" horiz-adv-x="575" d="M-129 -141q70 -27 131 -27q62 0 94.5 36t32.5 99v1135h317v-1116q0 -195 -104 -320q-103 -127 -311 -127q-63 0 -160 23v297zM102 1346q0 75 55 128.5t130 53.5q78 0 132 -53.5t54 -128.5t-55.5 -130t-130.5 -55t-130 55t-55 130z" />
<glyph unicode="k" horiz-adv-x="1175" d="M129 0v1565h317v-641q0 -58 -8 -189h11l94 129l205 238h399l-449 -514l459 -588h-393l-272 371l-46 -52v-319h-317z" />
<glyph unicode="l" horiz-adv-x="575" d="M129 0v1565h317v-1565h-317z" />
<glyph unicode="m" horiz-adv-x="1775" d="M129 0v1102h293l10 -96q114 120 230 120q152 0 256 -131q122 131 305 131q191 0 306.5 -126.5t115.5 -354.5v-645h-318v633q0 92 -34 142t-101 50q-59 0 -101 -45.5t-42 -93.5v-686h-318v627q0 92 -35.5 145t-101.5 53q-57 0 -99 -41.5t-49 -87.5v-696h-317z" />
<glyph unicode="n" horiz-adv-x="1226" d="M129 0v1102h293l10 -94q118 118 246 118q420 0 420 -491v-635h-318v608q0 215 -164 215q-36 0 -77.5 -22.5t-67.5 -50.5l-25 -23v-727h-317z" />
<glyph unicode="o" horiz-adv-x="1255" d="M72 545q0 252 161 416q162 165 394 165q241 0 397 -170q160 -171 160 -407q0 -235 -160 -406q-156 -166 -397 -166q-242 0 -398 166q-157 168 -157 402zM395 545q0 -110 68 -187t166 -77q99 0 165 76t66 192q0 117 -68 195.5t-163 78.5t-166 -80q-68 -77 -68 -198z" />
<glyph unicode="p" horiz-adv-x="1308" d="M129 -442v1544h293l10 -98q122 122 283 122q242 0 383 -170t141 -405q0 -237 -141 -406q-140 -168 -383 -168q-141 0 -269 78v-497h-317zM446 412q94 -131 242 -131q105 0 166 73t61 197q0 120 -62 196t-165 76q-107 0 -174.5 -77.5t-67.5 -194.5v-139z" />
<glyph unicode="q" horiz-adv-x="1310" d="M72 551q0 234 139 405q141 170 385 170q74 0 150.5 -34t127.5 -91l13 101h293v-1544h-318v501q-125 -82 -266 -82q-245 0 -385 168q-139 171 -139 406zM395 551q0 -120 60.5 -195t162.5 -75q108 0 176 78.5t68 193.5v135q-41 57 -103.5 96t-140.5 39q-102 0 -162.5 -75 t-60.5 -197z" />
<glyph unicode="r" horiz-adv-x="800" d="M129 0v1102h289l12 -101q36 54 117 84q85 31 153 31h68v-321q-30 6 -68 6q-137 0 -195.5 -70.5t-58.5 -214.5v-516h-317z" />
<glyph unicode="s" horiz-adv-x="917" d="M100 774q0 149 109 252q109 100 272 100q140 0 291 -65v-305q-158 96 -278 96q-28 0 -49 -16t-21 -41q0 -28 54 -68t147 -94q82 -45 142 -126t60 -169q0 -159 -110 -260q-107 -101 -271 -101q-162 0 -327 70v309q191 -102 313 -102q31 0 51.5 15.5t20.5 41.5 q0 52 -203 164q-72 42 -137 123q-64 79 -64 176z" />
<glyph unicode="t" horiz-adv-x="782" d="M35 834v268h133v184l317 133v-317h258v-268h-258v-412q0 -58 31.5 -97.5t83.5 -39.5q64 0 143 26v-301q-76 -20 -155 -20q-207 0 -316 127q-104 125 -104 321v396h-133z" />
<glyph unicode="u" horiz-adv-x="1208" d="M119 465v637h317v-610q0 -105 47 -158t119 -53q73 0 120.5 53.5t47.5 157.5v610h317v-637q0 -228 -130.5 -358t-354.5 -130t-353.5 130t-129.5 358z" />
<glyph unicode="v" horiz-adv-x="1216" d="M18 1102h349l172 -408q12 -31 36 -110.5t25 -83.5h14q22 98 64 194l174 408h348l-493 -1102h-201z" />
<glyph unicode="w" horiz-adv-x="1660" d="M37 1102h330l108 -416q22 -82 31 -184h12q59 172 64 184l170 371h157l170 -369q37 -95 64 -186h12q11 114 31 184l106 416h334l-303 -1102h-225l-197 383q-3 6 -17 36t-22 50q-21 55 -28 66h-9q-55 -132 -65 -152l-199 -383h-225z" />
<glyph unicode="x" horiz-adv-x="1259" d="M16 0l428 573l-389 529h385l123 -174q39 -54 62 -111h14q20 49 63 111l117 174h385l-387 -529l424 -573h-383l-151 211l-72 119h-10q-2 -4 -14.5 -27t-28 -50t-27.5 -42l-154 -211h-385z" />
<glyph unicode="y" horiz-adv-x="1230" d="M16 1102h351l186 -404q21 -52 37 -104l22 -68h11q42 125 61 172l180 404h348l-725 -1544h-344l303 620z" />
<glyph unicode="z" horiz-adv-x="1060" d="M51 0v156l414 567q47 65 84 102v15q-73 -6 -146 -6h-307v268h910v-166l-400 -551q-59 -78 -92 -111v-12q86 6 156 6h336v-268h-955z" />
<glyph unicode="{" horiz-adv-x="641" d="M55 438v303q129 0 129 66q0 59 -61 166q-62 112 -62 182q0 158 123 272q124 115 279 115h123v-301h-123q-28 0 -56 -26.5t-28 -59.5q0 -66 63 -174q64 -110 64 -176q0 -119 -90 -215q90 -96 90 -215q0 -66 -64 -176q-63 -108 -63 -174q0 -33 28 -59.5t56 -26.5h123v-301 h-123q-156 0 -279 114t-123 273q0 71 62 180q61 110 61 168q0 65 -129 65z" />
<glyph unicode="|" horiz-adv-x="595" d="M160 -442v2007h276v-2007h-276z" />
<glyph unicode="}" horiz-adv-x="641" d="M55 -61h123q28 0 56 26.5t28 59.5q0 66 -63 174q-64 110 -64 176q0 119 90 215q-90 96 -90 215q0 66 64 176q63 108 63 174q0 33 -28 59.5t-56 26.5h-123v301h123q155 0 279 -115q123 -114 123 -272q0 -70 -62 -182q-61 -107 -61 -166q0 -66 129 -66v-303 q-129 0 -129 -65q0 -58 61 -168q62 -109 62 -180q0 -159 -123 -273t-279 -114h-123v301z" />
<glyph unicode="~" horiz-adv-x="1210" d="M55 295q0 457 328 457q71 0 146.5 -26t125.5 -64q107 -73 136 -84q13 -5 22 -5q61 0 61 164h281q0 -456 -328 -456q-70 0 -145 26t-127 62q-121 90 -158 90q-61 0 -61 -164h-281z" />
<glyph unicode="&#xa1;" horiz-adv-x="628" d="M131 864q0 78 52 129t130 51q76 0 129.5 -51.5t53.5 -128.5q0 -75 -54.5 -129.5t-128.5 -54.5q-75 0 -128.5 53t-53.5 131zM154 -442v1081h315v-1081h-315z" />
<glyph unicode="&#xa2;" horiz-adv-x="968" d="M51 547q0 234 148 399q146 163 366 178v123h115v-127q87 -15 182 -65v-365q-95 99 -182 125v-530q93 21 182 116v-356q-77 -43 -182 -63v-154h-115v152q-224 15 -368 178q-146 169 -146 389zM375 547q0 -94 54 -169t136 -95v534q-83 -17 -136.5 -92t-53.5 -178z" />
<glyph unicode="&#xa3;" horiz-adv-x="1142" d="M41 0v309h131v195h-102v155h102v340q0 194 141 338q146 146 344 146q129 0 254 -58v-358q-101 107 -254 107q-72 0 -122 -49.5t-50 -118.5v-347h433v-155h-433v-195h576v-309h-1020z" />
<glyph unicode="&#xa5;" horiz-adv-x="1304" d="M-2 1458h371l217 -373q20 -42 61 -137h15q15 57 61 135l217 375h369l-277 -481h135v-156h-223l-92 -162h315v-155h-350v-504h-325v504h-345v155h310l-95 162h-215v156h127z" />
<glyph unicode="&#xa7;" horiz-adv-x="1136" d="M104 666q0 174 150 297q-100 93 -100 231q0 161 127 276q128 113 335 113q155 0 349 -84v-356q-189 127 -369 127q-35 0 -63.5 -9t-42 -24.5t-2 -38t52.5 -45.5q10 -5 126 -60t183 -94q89 -52 145 -133.5t56 -175.5q0 -175 -150 -295q100 -93 100 -233q0 -161 -129 -275 q-124 -112 -331 -112q-156 0 -351 82v344q183 -115 369 -115q111 0 111 59q0 27 -49.5 56t-151.5 73q-367 153 -365 392zM385 702q0 -68 285 -182q98 61 98 133q0 35 -67.5 76.5t-215.5 106.5q-100 -57 -100 -134z" />
<glyph unicode="&#xa8;" horiz-adv-x="808" d="M76 1264q0 63 41.5 105t103.5 42t105 -43t43 -104q0 -60 -44 -103t-104 -43q-61 0 -103 43t-42 103zM438 1264q0 63 41.5 105t104.5 42q60 0 103.5 -43t43.5 -104q0 -60 -43.5 -103t-103.5 -43q-62 0 -104 42t-42 104z" />
<glyph unicode="&#xa9;" horiz-adv-x="1648" d="M63 739q0 312 222 539q223 223 540 223q318 0 537 -223q223 -223 223 -539q0 -317 -223 -540q-222 -222 -537 -222q-313 0 -540 222q-222 227 -222 540zM270 739q0 -231 162 -393q164 -164 393 -164q228 0 392 164q163 163 163 393q0 228 -163 391q-162 162 -392 162 q-231 0 -393 -162t-162 -391zM401 739q0 196 136 332q134 137 329 137q102 0 219 -57v-279q-131 107 -219 107q-99 0 -166 -70.5t-67 -169.5q0 -101 67 -171t166 -70q84 0 219 106v-274q-127 -62 -219 -62q-194 0 -329 135q-136 139 -136 336z" />
<glyph unicode="&#xaa;" horiz-adv-x="800" d="M92 995q0 100 74 161t205 61q39 0 92 -9v19q0 26 -28 45.5t-64 19.5q-94 0 -205 -57v201q109 47 205 47q133 0 218 -72t85 -192v-433h-189l-8 41q-64 -55 -145 -55q-240 0 -240 223zM117 494v198h557v-198h-557zM289 1008q0 -58 67 -58q50 0 80.5 32.5t30.5 80.5 q-55 8 -94 8q-40 0 -62 -18t-22 -45z" />
<glyph unicode="&#xab;" horiz-adv-x="1253" d="M76 551l278 414h344l-280 -414l280 -414h-344zM555 551l279 414h344l-283 -414l283 -414h-344z" />
<glyph unicode="&#xac;" d="M76 510v305h1016v-631h-310v326h-706z" />
<glyph unicode="&#xad;" horiz-adv-x="716" d="M68 469v297h581v-297h-581z" />
<glyph unicode="&#xae;" horiz-adv-x="890" d="M68 1055q0 158 110 268q114 111 268 111q156 0 267 -111q110 -110 110 -268q0 -157 -110 -267t-267 -110q-155 0 -268 110q-110 110 -110 267zM158 1055q0 -121 84 -205t204 -84q121 0 205 84q86 86 86 205q0 122 -86 205q-83 83 -205 83q-121 0 -204 -83 q-84 -84 -84 -205zM305 834v446h133q74 0 117 -39t43 -102q0 -94 -80 -129l111 -176h-129l-84 159h-8v-159h-103zM408 1094h30q58 0 58 45t-58 45h-30v-90z" />
<glyph unicode="&#xaf;" horiz-adv-x="813" d="M98 1165v205h617v-205h-617z" />
<glyph unicode="&#xb0;" horiz-adv-x="802" d="M47 1145q-3 146 103 252q104 104 251 104q148 0 252 -104q107 -104 107 -252q0 -147 -107 -254q-105 -105 -252 -105q-146 0 -251 105q-103 109 -103 254zM264 1147q0 -58 39 -97.5t98 -39.5q57 0 97.5 39.5t40.5 95.5t-40 93.5t-100 37.5q-57 0 -96 -37.5t-39 -91.5z " />
<glyph unicode="&#xb1;" d="M76 -20v307h1016v-307h-1016zM76 621v305h354v288h305v-288h357v-305h-357v-281h-305v281h-354z" />
<glyph unicode="&#xb4;" horiz-adv-x="835" d="M129 1178l449 335l133 -190l-469 -305z" />
<glyph unicode="&#xb5;" horiz-adv-x="1243" d="M137 -442v1544h318v-629q0 -100 44 -149.5t119 -49.5q35 0 78.5 22t71.5 48l25 25v733h315v-1102h-291l-12 74q-117 -97 -227 -97q-77 0 -123 17v-436h-318z" />
<glyph unicode="&#xb6;" horiz-adv-x="1257" d="M109 1030q0 187 120 307q121 121 324 121h655v-217h-121v-1495h-217v1495h-129v-1495h-217v872q-172 0 -295 111q-120 111 -120 301z" />
<glyph unicode="&#xb7;" horiz-adv-x="854" d="M246.5 544q8.5 56 50.5 93q37 43 93.5 52t105 -11t82.5 -66t30 -104q0 -76 -52 -128t-130 -52q-57 -4 -102.5 29.5t-65.5 82t-11.5 104.5z" />
<glyph unicode="&#xb8;" horiz-adv-x="792" d="M211 -250q91 -55 149 -55q35 0 50 29.5t1 59.5t-51 30h-92l41 186h140v-74q76 -6 128 -62.5t52 -127.5q0 -90 -68 -149.5t-178 -59.5q-96 0 -172 55v168z" />
<glyph unicode="&#xba;" horiz-adv-x="872" d="M92 1124q0 155 98 256q103 103 246 103q147 0 246 -105q98 -104 98 -252t-98 -252q-99 -102 -246 -102t-246 102q-98 101 -98 250zM117 494v198h639v-198h-639zM307 1124q0 -62 37 -105.5t92 -43.5q56 0 92.5 42.5t36.5 108.5q0 67 -37 110.5t-92 43.5q-54 0 -91.5 -44.5 t-37.5 -111.5z" />
<glyph unicode="&#xbb;" horiz-adv-x="1251" d="M76 137l280 414l-280 414h342l278 -414l-278 -414h-342zM555 137l281 414l-281 414h340l281 -414l-281 -414h-340z" />
<glyph unicode="&#xbf;" horiz-adv-x="999" d="M66 -29q0 76 32 146.5t82 120.5q23 23 69 64t71 65.5t47 58.5t22 63v150h313v-190q0 -73 -46.5 -150t-114.5 -137q-160 -136 -160 -197q0 -48 29 -74t75 -26q131 0 256 98v-354q-152 -51 -256 -51q-182 0 -301 116q-118 112 -118 297zM362 862q0 77 52 129q37 41 94 50 t107 -10.5t84 -65.5t30 -103q0 -76 -53.5 -130t-130.5 -54q-76 0 -129 53q-54 54 -54 131z" />
<glyph unicode="&#xc0;" horiz-adv-x="1546" d="M18 0l633 1458h244l633 -1458h-363l-116 297h-551l-117 -297h-363zM479 1800l133 191l449 -336l-111 -160zM612 596h318l-76 207q-23 61 -74 231h-18q0 -2 -27 -94q-28 -96 -45 -139z" />
<glyph unicode="&#xc1;" horiz-adv-x="1546" d="M18 0l633 1458h244l633 -1458h-363l-116 297h-551l-117 -297h-363zM479 1655l449 336l133 -191l-469 -305zM612 596h318l-76 207q-23 61 -74 231h-18q0 -2 -27 -94q-28 -96 -45 -139z" />
<glyph unicode="&#xc2;" horiz-adv-x="1546" d="M18 0l633 1458h244l633 -1458h-363l-116 297h-551l-117 -297h-363zM362 1665l408 313l406 -313l-113 -147l-293 176l-295 -176zM612 596h318l-76 207q-23 61 -74 231h-18q0 -2 -27 -94q-28 -96 -45 -139z" />
<glyph unicode="&#xc3;" horiz-adv-x="1546" d="M18 0l633 1458h244l633 -1458h-363l-116 297h-551l-117 -297h-363zM408 1704q102 172 254 172q38 0 120 -31q79 -30 105 -30q38 0 78 67l170 -104q-94 -172 -258 -172q-43 0 -119 28q-76 31 -105 31q-37 0 -75 -66zM612 596h318l-76 207q-23 61 -74 231h-18q0 -2 -27 -94 q-28 -96 -45 -139z" />
<glyph unicode="&#xc4;" horiz-adv-x="1546" d="M18 0l633 1458h244l633 -1458h-363l-116 297h-551l-117 -297h-363zM442 1741q0 63 42 105t104 42t104.5 -43t42.5 -104q0 -60 -43.5 -103t-103.5 -43q-61 0 -103.5 43t-42.5 103zM612 596h318l-76 207q-23 61 -74 231h-18q0 -2 -27 -94q-28 -96 -45 -139zM805 1741 q0 63 41 105t104 42q60 0 104 -43t44 -104q0 -60 -44 -103t-104 -43q-61 0 -103 42t-42 104z" />
<glyph unicode="&#xc5;" horiz-adv-x="1546" d="M18 0l633 1458h244l633 -1458h-363l-116 297h-551l-117 -297h-363zM544 1740.5q0 91.5 66 157.5q68 68 160 68t157.5 -66.5t65.5 -158.5q0 -94 -64.5 -158.5t-158.5 -64.5q-92 0 -160 65q-66 66 -66 157.5zM612 596h318l-76 207q-23 61 -74 231h-18q0 -2 -27 -94 q-28 -96 -45 -139zM697 1741.5q0 -30.5 20 -53.5q23 -20 53.5 -20t50.5 20q34 31 19.5 72.5t-51.5 51.5t-72 -20q-20 -20 -20 -50.5z" />
<glyph unicode="&#xc6;" horiz-adv-x="1976" d="M18 0l725 1458h1110v-317h-632l39 -217h575v-320h-520l51 -285h487v-319h-770l-51 297h-444l-131 -297h-439zM696 616h279l-84 476h-14q-17 -98 -72 -224z" />
<glyph unicode="&#xc7;" horiz-adv-x="1263" d="M86 729q0 317 215 535q216 219 524 219q162 0 349 -94v-390q-201 162 -349 162q-180 0 -295 -127q-114 -126 -114 -305t114 -305q118 -127 295 -127q141 0 349 156v-381q-188 -95 -347 -95v-51q76 -6 128.5 -62.5t52.5 -127.5q0 -90 -68 -149.5t-178 -59.5q-96 0 -172 55 v168q91 -55 149 -55q35 0 50 29.5t1 59.5t-51 30h-92l39 178q-258 46 -430 254q-170 206 -170 483z" />
<glyph unicode="&#xc8;" horiz-adv-x="1153" d="M145 0v1458h885v-311h-561v-258h545v-301h-545v-277h561v-311h-885zM285 1800l133 191l448 -336l-110 -160z" />
<glyph unicode="&#xc9;" horiz-adv-x="1153" d="M145 0v1458h885v-311h-561v-258h545v-301h-545v-277h561v-311h-885zM279 1655l448 336l133 -191l-469 -305z" />
<glyph unicode="&#xca;" horiz-adv-x="1153" d="M145 0v1458h885v-311h-561v-258h545v-301h-545v-277h561v-311h-885zM178 1665l408 313l405 -313l-112 -147l-293 176l-295 -176z" />
<glyph unicode="&#xcb;" horiz-adv-x="1153" d="M145 0v1458h885v-311h-561v-258h545v-301h-545v-277h561v-311h-885zM258 1741q0 63 41.5 105t103.5 42t105 -43t43 -104q0 -60 -44 -103t-104 -43q-61 0 -103 43t-42 103zM621 1741q0 63 41 105t104 42q60 0 103.5 -43t43.5 -104q0 -60 -43.5 -103t-103.5 -43 q-61 0 -103 42t-42 104z" />
<glyph unicode="&#xcc;" horiz-adv-x="614" d="M16 1800l134 191l448 -336l-111 -160zM145 0v1458h324v-1458h-324z" />
<glyph unicode="&#xcd;" horiz-adv-x="614" d="M16 1655l449 336l133 -191l-469 -305zM145 0v1458h324v-1458h-324z" />
<glyph unicode="&#xce;" horiz-adv-x="614" d="M-98 1665l407 313l406 -313l-113 -147l-293 176l-295 -176zM145 0v1458h324v-1458h-324z" />
<glyph unicode="&#xcf;" horiz-adv-x="614" d="M-23 1741q0 63 42 105t104 42q61 0 104 -43t43 -104q0 -60 -43.5 -103t-103.5 -43q-61 0 -103.5 43t-42.5 103zM145 0v1458h324v-1458h-324zM340 1741q0 63 41 105t104 42q60 0 104 -43t44 -104q0 -60 -44 -103t-104 -43q-61 0 -103 42t-42 104z" />
<glyph unicode="&#xd0;" horiz-adv-x="1423" d="M16 672v106h129v680h406q193 0 348.5 -61t249.5 -168q190 -211 190 -500q0 -286 -190 -500q-94 -107 -249.5 -168t-348.5 -61h-406v672h-129zM469 319h45q235 0 364.5 105.5t129.5 304.5t-129.5 305.5t-364.5 106.5h-45v-363h274v-106h-274v-353z" />
<glyph unicode="&#xd1;" horiz-adv-x="1456" d="M145 0v1458h265l481 -667q29 -44 92 -146h10q-8 117 -8 170v643h326v-1458h-236l-506 698q-38 51 -98 150h-8q6 -99 6 -156v-692h-324zM358 1704q102 172 254 172q39 0 121 -31q79 -30 105 -30q37 0 77 67l170 -104q-94 -172 -258 -172q-42 0 -118 28q-76 31 -105 31 q-38 0 -76 -66z" />
<glyph unicode="&#xd2;" horiz-adv-x="1646" d="M86 729q0 317 215 535q216 219 522 219q310 0 523 -219q215 -218 215 -535q0 -316 -215 -534q-212 -218 -523 -218q-307 0 -522 218t-215 534zM414 729q0 -179 114 -305q116 -125 295 -125q180 0 293 125q115 127 115 305t-115 305t-293 127q-180 0 -295 -127 q-114 -126 -114 -305zM537 1800l133 191l448 -336l-110 -160z" />
<glyph unicode="&#xd3;" horiz-adv-x="1646" d="M86 729q0 317 215 535q216 219 522 219q310 0 523 -219q215 -218 215 -535q0 -316 -215 -534q-212 -218 -523 -218q-307 0 -522 218t-215 534zM414 729q0 -179 114 -305q116 -125 295 -125q180 0 293 125q115 127 115 305t-115 305t-293 127q-180 0 -295 -127 q-114 -126 -114 -305zM539 1655l448 336l133 -191l-469 -305z" />
<glyph unicode="&#xd4;" horiz-adv-x="1646" d="M86 729q0 317 215 535q216 219 522 219q310 0 523 -219q215 -218 215 -535q0 -316 -215 -534q-212 -218 -523 -218q-307 0 -522 218t-215 534zM414 729q0 -179 114 -305q116 -125 295 -125q180 0 293 125q115 127 115 305t-115 305t-293 127q-180 0 -295 -127 q-114 -126 -114 -305zM420 1665l407 313l406 -313l-113 -147l-293 176l-295 -176z" />
<glyph unicode="&#xd5;" horiz-adv-x="1646" d="M86 729q0 317 215 535q216 219 522 219q310 0 523 -219q215 -218 215 -535q0 -316 -215 -534q-212 -218 -523 -218q-307 0 -522 218t-215 534zM414 729q0 -179 114 -305q116 -125 295 -125q180 0 293 125q115 127 115 305t-115 305t-293 127q-180 0 -295 -127 q-114 -126 -114 -305zM461 1704q102 172 254 172q39 0 121 -31q79 -30 104 -30q38 0 78 67l170 -104q-94 -172 -258 -172q-43 0 -119 28q-76 31 -104 31q-38 0 -76 -66z" />
<glyph unicode="&#xd6;" horiz-adv-x="1646" d="M86 729q0 317 215 535q216 219 522 219q310 0 523 -219q215 -218 215 -535q0 -316 -215 -534q-212 -218 -523 -218q-307 0 -522 218t-215 534zM414 729q0 -179 114 -305q116 -125 295 -125q180 0 293 125q115 127 115 305t-115 305t-293 127q-180 0 -295 -127 q-114 -126 -114 -305zM500 1741q0 63 41.5 105t103.5 42t105 -43t43 -104q0 -60 -44 -103t-104 -43q-61 0 -103 43t-42 103zM862 1741q0 63 41.5 105t104.5 42q60 0 103.5 -43t43.5 -104q0 -60 -43.5 -103t-103.5 -43q-62 0 -104 42.5t-42 103.5z" />
<glyph unicode="&#xd8;" horiz-adv-x="1646" d="M86 729q0 317 215 535q216 219 522 219q251 0 445 -150l213 254l82 -69l-215 -256q213 -219 213 -533q0 -316 -215 -534q-212 -218 -523 -218q-242 0 -434 142l-207 -246l-82 70l207 245q-221 221 -221 541zM414 729q0 -171 102 -291l543 647q-101 76 -236 76 q-180 0 -295 -127q-114 -126 -114 -305zM596 367q103 -68 227 -68q180 0 293 125q115 127 115 305q0 162 -94 281z" />
<glyph unicode="&#xd9;" horiz-adv-x="1366" d="M145 543v915h322v-903q0 -119 60 -186.5t155 -67.5q93 0 153 68t60 186v903h326v-915q0 -257 -158 -412q-157 -154 -381 -154t-381 154q-156 153 -156 412zM393 1800l133 191l449 -336l-111 -160z" />
<glyph unicode="&#xda;" horiz-adv-x="1366" d="M145 543v915h322v-903q0 -119 60 -186.5t155 -67.5q93 0 153 68t60 186v903h326v-915q0 -257 -158 -412q-157 -154 -381 -154t-381 154q-156 153 -156 412zM395 1655l449 336l133 -191l-469 -305z" />
<glyph unicode="&#xdb;" horiz-adv-x="1366" d="M145 543v915h322v-903q0 -119 60 -186.5t155 -67.5q93 0 153 68t60 186v903h326v-915q0 -257 -158 -412q-157 -154 -381 -154t-381 154q-156 153 -156 412zM279 1665l407 313l406 -313l-113 -147l-293 176l-295 -176z" />
<glyph unicode="&#xdc;" horiz-adv-x="1366" d="M145 543v915h322v-903q0 -119 60 -186.5t155 -67.5q93 0 153 68t60 186v903h326v-915q0 -257 -158 -412q-157 -154 -381 -154t-381 154q-156 153 -156 412zM354 1741q0 63 42 105t104 42t104.5 -43t42.5 -104q0 -60 -43.5 -103t-103.5 -43q-61 0 -103.5 43t-42.5 103z M717 1741q0 63 41 105t104 42q60 0 104 -43t44 -104q0 -60 -44 -103t-104 -43q-61 0 -103 42t-42 104z" />
<glyph unicode="&#xdd;" horiz-adv-x="1339" d="M14 1458h371l217 -373q29 -61 62 -137h14q15 57 61 135l217 375h369l-491 -860v-598h-326v598zM379 1655l448 336l134 -191l-469 -305z" />
<glyph unicode="&#xde;" horiz-adv-x="1187" d="M143 0v1458h322v-219h117q259 0 403 -141q148 -139 148 -353q0 -247 -160 -374t-410 -127h-98v-244h-322zM465 563h115q102 0 162.5 50t60.5 132q0 79 -62.5 127t-162.5 48h-113v-357z" />
<glyph unicode="&#xdf;" horiz-adv-x="1161" d="M119 0v1130q0 200 131 328q132 129 319 129q194 0 320 -129q129 -129 129 -319q0 -156 -107 -281q185 -138 185 -362q0 -265 -148 -392q-145 -127 -383 -127q-6 0 -17 1t-28 2t-31 2v333q46 -16 78 -16q90 0 142.5 50.5t52.5 146.5q0 186 -234 186h-39v303h35 q99 0 135.5 36.5t36.5 115.5q0 56 -35.5 93.5t-95.5 37.5q-46 0 -86.5 -42.5t-40.5 -97.5v-1128h-319z" />
<glyph unicode="&#xe0;" horiz-adv-x="1146" d="M80 332q0 158 119 255t329 97q84 0 172 -18v51q0 49 -53 87t-119 38q-104 0 -168 -21q-75 -21 -155 -63v295q174 73 323 73q213 0 351 -114q139 -115 139 -307v-705h-285l-14 90q-104 -113 -254 -113q-199 0 -292 89t-93 266zM274 1444l134 190l448 -336l-111 -159z M375 350q0 -112 129 -112q90 0 146.5 56t56.5 138v25q-106 16 -177 16q-73 0 -114 -34t-41 -89z" />
<glyph unicode="&#xe1;" horiz-adv-x="1146" d="M80 332q0 158 119 255t329 97q84 0 172 -18v51q0 49 -53 87t-119 38q-104 0 -168 -21q-75 -21 -155 -63v295q174 73 323 73q213 0 351 -114q139 -115 139 -307v-705h-285l-14 90q-104 -113 -254 -113q-199 0 -292 89t-93 266zM268 1298l449 336l133 -190l-469 -305z M375 350q0 -112 129 -112q90 0 146.5 56t56.5 138v25q-106 16 -177 16q-73 0 -114 -34t-41 -89z" />
<glyph unicode="&#xe2;" horiz-adv-x="1146" d="M80 332q0 158 119 255t329 97q84 0 172 -18v51q0 49 -53 87t-119 38q-104 0 -168 -21q-75 -21 -155 -63v295q174 73 323 73q213 0 351 -114q139 -115 139 -307v-705h-285l-14 90q-104 -113 -254 -113q-199 0 -292 89t-93 266zM150 1309l407 313l406 -313l-113 -148 l-293 176l-295 -176zM375 350q0 -112 129 -112q90 0 146.5 56t56.5 138v25q-106 16 -177 16q-73 0 -114 -34t-41 -89z" />
<glyph unicode="&#xe3;" horiz-adv-x="1146" d="M80 332q0 158 119 255t329 97q84 0 172 -18v51q0 49 -53 87t-119 38q-104 0 -168 -21q-75 -21 -155 -63v295q174 73 323 73q213 0 351 -114q139 -115 139 -307v-705h-285l-14 90q-104 -113 -254 -113q-199 0 -292 89t-93 266zM195 1348q102 172 254 172q38 0 120 -31 t105 -31q37 0 78 68l170 -105q-94 -172 -258 -172q-40 0 -119 29q-76 31 -105 31q-37 0 -75 -66zM375 350q0 -112 129 -112q90 0 146.5 56t56.5 138v25q-106 16 -177 16q-73 0 -114 -34t-41 -89z" />
<glyph unicode="&#xe4;" horiz-adv-x="1146" d="M80 332q0 158 119 255t329 97q84 0 172 -18v51q0 49 -53 87t-119 38q-104 0 -168 -21q-75 -21 -155 -63v295q174 73 323 73q213 0 351 -114q139 -115 139 -307v-705h-285l-14 90q-104 -113 -254 -113q-199 0 -292 89t-93 266zM229 1384q0 63 42 105.5t104 42.5 q61 0 104 -43t43 -105q0 -60 -43.5 -102.5t-103.5 -42.5q-61 0 -103.5 42.5t-42.5 102.5zM375 350q0 -112 129 -112q90 0 146.5 56t56.5 138v25q-106 16 -177 16q-73 0 -114 -34t-41 -89zM592 1384q0 63 41 105.5t104 42.5q60 0 104 -43.5t44 -104.5q0 -60 -44 -102.5 t-104 -42.5q-61 0 -103 41.5t-42 103.5z" />
<glyph unicode="&#xe5;" horiz-adv-x="1146" d="M80 332q0 158 119 255t329 97q84 0 172 -18v51q0 49 -53 87t-119 38q-104 0 -168 -21q-75 -21 -155 -63v295q174 73 323 73q213 0 351 -114q139 -115 139 -307v-705h-285l-14 90q-104 -113 -254 -113q-199 0 -292 89t-93 266zM342 1384.5q0 91.5 66 157.5q68 68 159 68 q92 0 158 -67t66 -159q0 -94 -65 -158.5t-159 -64.5q-90 0 -159 66q-66 66 -66 157.5zM375 350q0 -112 129 -112q90 0 146.5 56t56.5 138v25q-106 16 -177 16q-73 0 -114 -34t-41 -89zM494 1385q0 -31 20 -54q23 -20 53.5 -20t50.5 20q34 31 19.5 72.5t-51.5 52t-72 -19.5 q-20 -20 -20 -51z" />
<glyph unicode="&#xe6;" horiz-adv-x="1787" d="M78 332q0 162 122.5 258t340.5 96h159v37q0 49 -53 89t-119 40q-78 0 -135 -14q-67 -16 -90 -29l-102 -53v297q180 73 327 73q212 0 353 -120q138 120 342 120q203 0 348 -151t145 -424q0 -36 -4 -82h-680q46 -211 225 -211q184 0 340 78v-303q-165 -56 -340 -56 q-231 0 -378 144q-156 -144 -414 -144q-387 0 -387 355zM375 352q0 -112 129 -112q90 0 145.5 53.5t55.5 136.5v39h-107q-115 0 -169 -25.5t-54 -91.5zM1030 686h381q-7 81 -60 132.5t-126 51.5t-124.5 -50t-70.5 -134z" />
<glyph unicode="&#xe7;" horiz-adv-x="980" d="M72 549q0 249 157 414q159 163 394 163q125 0 258 -71v-363q-125 131 -252 131q-92 0 -164 -78q-70 -76 -70 -196q0 -108 68 -191q70 -79 166 -79q133 0 252 122v-356q-121 -65 -250 -68v-51q76 -6 128 -62.5t52 -127.5q0 -90 -68 -149.5t-178 -59.5q-96 0 -172 55v168 q91 -55 150 -55q35 0 50 29.5t1 59.5t-51 30h-92l38 180q-190 47 -303 199q-114 156 -114 356z" />
<glyph unicode="&#xe8;" horiz-adv-x="1159" d="M70 573q0 252 141 402q142 151 381 151q207 0 350 -149t143 -424q0 -38 -4 -84h-678q12 -97 73 -154t153 -57q184 0 340 78v-303q-165 -56 -340 -56q-247 0 -404 160q-155 158 -155 436zM315 1444l134 190l448 -336l-111 -159zM401 686h383q-7 81 -61.5 132.5 t-128.5 51.5q-75 0 -129 -51t-64 -133z" />
<glyph unicode="&#xe9;" horiz-adv-x="1159" d="M70 573q0 252 141 402q142 151 381 151q207 0 350 -149t143 -424q0 -38 -4 -84h-678q12 -97 73 -154t153 -57q184 0 340 78v-303q-165 -56 -340 -56q-247 0 -404 160q-155 158 -155 436zM309 1298l449 336l133 -190l-469 -305zM401 686h383q-7 81 -61.5 132.5 t-128.5 51.5q-75 0 -129 -51t-64 -133z" />
<glyph unicode="&#xea;" horiz-adv-x="1159" d="M70 573q0 252 141 402q142 151 381 151q207 0 350 -149t143 -424q0 -38 -4 -84h-678q12 -97 73 -154t153 -57q184 0 340 78v-303q-165 -56 -340 -56q-247 0 -404 160q-155 158 -155 436zM195 1309l407 313l406 -313l-113 -148l-293 176l-295 -176zM401 686h383 q-7 81 -61.5 132.5t-128.5 51.5q-75 0 -129 -51t-64 -133z" />
<glyph unicode="&#xeb;" horiz-adv-x="1159" d="M70 573q0 252 141 402q142 151 381 151q207 0 350 -149t143 -424q0 -38 -4 -84h-678q12 -97 73 -154t153 -57q184 0 340 78v-303q-165 -56 -340 -56q-247 0 -404 160q-155 158 -155 436zM272 1384q0 63 42 105.5t104 42.5q61 0 104 -43t43 -105q0 -60 -43.5 -102.5 t-103.5 -42.5q-61 0 -103.5 42.5t-42.5 102.5zM401 686h383q-7 81 -61.5 132.5t-128.5 51.5q-75 0 -129 -51t-64 -133zM635 1384q0 63 41 105.5t104 42.5q60 0 104 -43.5t44 -104.5q0 -60 -44 -102.5t-104 -42.5q-62 0 -103.5 41.5t-41.5 103.5z" />
<glyph unicode="&#xec;" horiz-adv-x="575" d="M-6 1444l133 190l448 -336l-110 -159zM129 0v1102h317v-1102h-317z" />
<glyph unicode="&#xed;" horiz-adv-x="575" d="M-6 1298l448 336l133 -190l-469 -305zM129 0v1102h317v-1102h-317z" />
<glyph unicode="&#xee;" horiz-adv-x="575" d="M-121 1309l408 313l405 -313l-112 -148l-293 176l-295 -176zM129 0v1102h317v-1102h-317z" />
<glyph unicode="&#xef;" horiz-adv-x="575" d="M-43 1384q0 63 41.5 105.5t103.5 42.5t105 -43t43 -105q0 -60 -44 -102.5t-104 -42.5q-61 0 -103 42.5t-42 102.5zM129 0v1102h317v-1102h-317zM319 1384q0 63 41.5 105.5t104.5 42.5q60 0 103.5 -43.5t43.5 -104.5q0 -60 -43.5 -102.5t-103.5 -42.5q-62 0 -104 42 t-42 103z" />
<glyph unicode="&#xf0;" horiz-adv-x="1241" d="M72 512q0 222 153 375q152 155 379 155q82 0 131 -24q-143 131 -370 219l-183 -152l-67 82l131 111q-107 28 -131 33v276q191 -43 362 -114l189 157l67 -82l-149 -125q280 -141 432.5 -341t152.5 -439q0 -296 -161 -481q-164 -185 -404 -185q-226 0 -379 156t-153 379z M395 512q0 -92 60 -164q61 -67 151 -67q98 0 168 94q72 97 72 231q-103 133 -240 133q-88 0 -149 -67q-62 -68 -62 -160z" />
<glyph unicode="&#xf1;" horiz-adv-x="1226" d="M129 0v1102h293l10 -94q118 118 246 118q420 0 420 -491v-635h-318v608q0 215 -164 215q-36 0 -77.5 -22.5t-67.5 -50.5l-25 -23v-727h-317zM258 1348q102 172 254 172q39 0 121 -31t104 -31q37 0 78 68l170 -105q-94 -172 -258 -172q-38 0 -117 29q-76 31 -106 31 q-38 0 -76 -66z" />
<glyph unicode="&#xf2;" horiz-adv-x="1255" d="M72 545q0 252 161 416q162 165 394 165q241 0 397 -170q160 -171 160 -407q0 -235 -160 -406q-156 -166 -397 -166q-242 0 -398 166q-157 168 -157 402zM344 1444l133 190l449 -336l-111 -159zM395 545q0 -110 68 -187t166 -77q99 0 165 76t66 192q0 117 -68 195.5 t-163 78.5t-166 -80q-68 -77 -68 -198z" />
<glyph unicode="&#xf3;" horiz-adv-x="1255" d="M72 545q0 252 161 416q162 165 394 165q241 0 397 -170q160 -171 160 -407q0 -235 -160 -406q-156 -166 -397 -166q-242 0 -398 166q-157 168 -157 402zM344 1298l449 336l133 -190l-469 -305zM395 545q0 -110 68 -187t166 -77q99 0 165 76t66 192q0 117 -68 195.5 t-163 78.5t-166 -80q-68 -77 -68 -198z" />
<glyph unicode="&#xf4;" horiz-adv-x="1255" d="M72 545q0 252 161 416q162 165 394 165q241 0 397 -170q160 -171 160 -407q0 -235 -160 -406q-156 -166 -397 -166q-242 0 -398 166q-157 168 -157 402zM229 1309l408 313l405 -313l-112 -148l-293 176l-295 -176zM395 545q0 -110 68 -187t166 -77q99 0 165 76t66 192 q0 117 -68 195.5t-163 78.5t-166 -80q-68 -77 -68 -198z" />
<glyph unicode="&#xf5;" horiz-adv-x="1255" d="M72 545q0 252 161 416q162 165 394 165q241 0 397 -170q160 -171 160 -407q0 -235 -160 -406q-156 -166 -397 -166q-242 0 -398 166q-157 168 -157 402zM270 1348q102 172 254 172q39 0 121 -31t105 -31q36 0 77 68l170 -105q-94 -172 -258 -172q-39 0 -118 29 q-73 31 -105 31q-38 0 -76 -66zM395 545q0 -110 68 -187t166 -77q99 0 165 76t66 192q0 117 -68 195.5t-163 78.5t-166 -80q-68 -77 -68 -198z" />
<glyph unicode="&#xf6;" horiz-adv-x="1255" d="M72 545q0 252 161 416q162 165 394 165q241 0 397 -170q160 -171 160 -407q0 -235 -160 -406q-156 -166 -397 -166q-242 0 -398 166q-157 168 -157 402zM307 1384q0 63 42 105.5t104 42.5q61 0 104 -43t43 -105q0 -60 -43.5 -102.5t-103.5 -42.5q-61 0 -103.5 42.5 t-42.5 102.5zM395 545q0 -110 68 -187t166 -77q99 0 165 76t66 192q0 117 -68 195.5t-163 78.5t-166 -80q-68 -77 -68 -198zM670 1384q0 63 41 105.5t104 42.5q60 0 104 -43.5t44 -104.5q0 -60 -44 -102.5t-104 -42.5q-61 0 -103 41.5t-42 103.5z" />
<glyph unicode="&#xf7;" d="M76 373v307h1016v-307h-1016zM399 150q0 79 52 131q37 42 93 50.5t105 -12t83.5 -66.5t31.5 -103q0 -78 -53 -129.5t-131 -51.5t-129 51q-52 52 -52 130zM399 895q0 75 53 128.5t128 53.5q78 0 131 -53.5t53 -128.5t-53 -127.5t-131 -52.5q-75 0 -128 52.5t-53 127.5z " />
<glyph unicode="&#xf8;" horiz-adv-x="1255" d="M61 -29l156 183q-145 165 -145 391q0 252 161 416q162 165 394 165q180 0 321 -102l146 172l88 -72l-148 -176q150 -166 150 -399q0 -235 -160 -406q-156 -166 -397 -166q-189 0 -326 101l-151 -182zM393 545q0 -67 35 -139l320 380q-52 37 -119 37q-95 0 -166 -80 q-70 -76 -70 -198zM504 317q50 -36 125 -36q99 0 166 76t67 192q0 85 -37 149z" />
<glyph unicode="&#xf9;" horiz-adv-x="1208" d="M119 465v637h317v-610q0 -105 47 -158t119 -53q73 0 120.5 53.5t47.5 157.5v610h317v-637q0 -228 -130.5 -358t-354.5 -130t-353.5 130t-129.5 358zM315 1444l134 190l448 -336l-111 -159z" />
<glyph unicode="&#xfa;" horiz-adv-x="1208" d="M119 465v637h317v-610q0 -105 47 -158t119 -53q73 0 120.5 53.5t47.5 157.5v610h317v-637q0 -228 -130.5 -358t-354.5 -130t-353.5 130t-129.5 358zM313 1298l449 336l133 -190l-469 -305z" />
<glyph unicode="&#xfb;" horiz-adv-x="1208" d="M119 465v637h317v-610q0 -105 47 -158t119 -53q73 0 120.5 53.5t47.5 157.5v610h317v-637q0 -228 -130.5 -358t-354.5 -130t-353.5 130t-129.5 358zM201 1309l407 313l406 -313l-113 -148l-293 176l-295 -176z" />
<glyph unicode="&#xfc;" horiz-adv-x="1208" d="M119 465v637h317v-610q0 -105 47 -158t119 -53q73 0 120.5 53.5t47.5 157.5v610h317v-637q0 -228 -130.5 -358t-354.5 -130t-353.5 130t-129.5 358zM274 1384q0 63 42 105.5t104 42.5q61 0 104 -43t43 -105q0 -60 -43.5 -102.5t-103.5 -42.5q-61 0 -103.5 42.5 t-42.5 102.5zM637 1384q0 63 41 105.5t104 42.5q60 0 104 -43.5t44 -104.5q0 -60 -44 -102.5t-104 -42.5q-62 0 -103.5 41.5t-41.5 103.5z" />
<glyph unicode="&#xfd;" horiz-adv-x="1230" d="M16 1102h351l186 -404q21 -52 37 -104l22 -68h11q42 125 61 172l180 404h348l-725 -1544h-344l303 620zM328 1298l448 336l133 -190l-469 -305z" />
<glyph unicode="&#xfe;" horiz-adv-x="1308" d="M129 -442v2007h315v-555q116 116 265 116q246 0 387 -170q143 -168 143 -407q0 -236 -143 -404q-140 -168 -387 -168q-135 0 -265 74v-493h-315zM444 410q105 -129 244 -129q105 0 167.5 73t62.5 195t-63 199t-167 77q-107 0 -175.5 -78.5t-68.5 -195.5v-141z" />
<glyph unicode="&#xff;" horiz-adv-x="1230" d="M16 1102h351l186 -404q21 -52 37 -104l22 -68h11q42 125 61 172l180 404h348l-725 -1544h-344l303 620zM289 1384q0 63 41.5 105.5t103.5 42.5t105 -43t43 -105q0 -60 -44 -102.5t-104 -42.5q-61 0 -103 42.5t-42 102.5zM651 1384q0 63 41.5 105.5t104.5 42.5 q60 0 103.5 -43.5t43.5 -104.5q0 -60 -43.5 -102.5t-103.5 -42.5q-62 0 -104 42t-42 103z" />
<glyph unicode="&#x131;" horiz-adv-x="575" d="M129 0v1102h317v-1102h-317z" />
<glyph unicode="&#x152;" horiz-adv-x="2013" d="M86 729q0 317 215 535q216 219 522 219q96 0 191 -25h876v-311h-561v-258h545v-301h-545v-277h561v-311h-884q-97 -23 -183 -23q-307 0 -522 218t-215 534zM414 729q0 -179 114 -305q116 -125 295 -125q99 0 183 41v778q-79 43 -183 43q-180 0 -295 -127 q-114 -126 -114 -305z" />
<glyph unicode="&#x153;" horiz-adv-x="1929" d="M72 545q0 252 161 416q162 165 394 165q225 0 370 -151q139 151 377 151q208 0 348 -149q144 -150 144 -424q0 -63 -2 -86h-680q21 -99 78.5 -154t146.5 -55q184 0 340 78v-303q-165 -56 -340 -56q-252 0 -399 164q-150 -164 -383 -164q-242 0 -398 166 q-157 168 -157 402zM393 545q0 -112 68 -189q69 -75 168 -75t166 76t67 192q0 121 -69 196q-72 78 -164 78q-95 0 -166 -80q-70 -76 -70 -198zM1182 686h381q-7 81 -60.5 131.5t-126.5 50.5t-124 -49t-70 -133z" />
<glyph unicode="&#x178;" horiz-adv-x="1339" d="M14 1458h371l217 -373q29 -61 62 -137h14q15 57 61 135l217 375h369l-491 -860v-598h-326v598zM342 1741q0 63 41.5 105t103.5 42t105 -43t43 -104q0 -60 -44 -103t-104 -43q-61 0 -103 43t-42 103zM705 1741q0 63 41 105t104 42q60 0 103.5 -43t43.5 -104 q0 -60 -43.5 -103t-103.5 -43q-61 0 -103 42t-42 104z" />
<glyph unicode="&#x192;" horiz-adv-x="1099" d="M6 -289l53 307q73 -12 129 -12q68 0 98 50t52 175l98 525h-141l47 291h147l23 122q77 405 408 414q69 3 174 -14l-58 -324q-68 35 -116 35q-50 0 -70 -55q-19 -54 -27 -99l-16 -79h190l-43 -291h-198q-2 -6 -2 -17l-97 -503q-27 -138 -34 -166q-11 -55 -50 -140 q-34 -81 -81 -125q-48 -46 -131 -76t-187 -30t-168 12z" />
<glyph unicode="&#x2c6;" horiz-adv-x="843" d="M14 1188l408 313l405 -313l-112 -148l-293 177l-295 -177z" />
<glyph unicode="&#x2c7;" horiz-adv-x="843" d="M14 1352l113 149l297 -180l291 180l112 -149l-405 -312z" />
<glyph unicode="&#x2d8;" horiz-adv-x="829" d="M23 1358l182 86q41 -92 89 -124t116 -32q41 -1 70 7.5t65.5 45t72.5 105.5l179 -88q-63 -141 -165.5 -210t-221.5 -69t-221.5 69t-165.5 210z" />
<glyph unicode="&#x2d9;" horiz-adv-x="808" d="M260 1264q0 63 42.5 105t105.5 42q60 0 102.5 -42.5t42.5 -104.5q0 -60 -42.5 -103t-102.5 -43q-62 0 -105 43t-43 103z" />
<glyph unicode="&#x2da;" horiz-adv-x="798" d="M174 1263.5q0 91.5 66 157.5q68 68 159 68q92 0 158 -66.5t66 -158.5q0 -94 -65 -159t-159 -65q-90 0 -159 66q-66 66 -66 157.5zM326 1264q0 -31 20 -54q23 -20 54 -20t51 20q34 31 19.5 72.5t-52 52t-72.5 -19.5q-20 -20 -20 -51z" />
<glyph unicode="&#x2db;" horiz-adv-x="811" d="M229 -276q0 71 46.5 144.5t125.5 131.5h281q-92 -28 -168 -98q-78 -75 -78 -140q0 -25 18 -43t44 -18q53 0 123 61v-192q-76 -43 -160 -43q-100 0 -166 56t-66 141z" />
<glyph unicode="&#x2dc;" horiz-adv-x="827" d="M43 1227q102 172 254 172q39 0 121 -31t104 -31q37 0 78 68l170 -105q-94 -172 -258 -172q-40 0 -119 29q-76 31 -104 31q-38 0 -76 -66z" />
<glyph unicode="&#x2dd;" horiz-adv-x="835" d="M10 1171l299 322l156 -160l-322 -295zM367 1171l299 322l157 -160l-323 -295z" />
<glyph unicode="&#x3a9;" horiz-adv-x="1597" d="M86 0v322h107q45 0 92 -9v15q-75 62 -99 104q-100 160 -100 326q0 313 201 520q202 205 514 205q313 0 512 -205q203 -206 203 -520q0 -158 -101 -326q-25 -44 -98 -104v-15q46 9 92 9h107v-322h-605v344q123 62 200 175t77 239q0 176 -107 289q-108 114 -280 114 q-173 0 -281 -114q-106 -112 -106 -289q0 -126 76.5 -239t199.5 -175v-344h-604z" />
<glyph unicode="&#x3c0;" horiz-adv-x="1200" d="M37 834v268h1098v-268h-121v-388q0 -57 37.5 -101t91.5 -52v-301q-184 3 -318 137q-129 132 -129 317v388h-219v-834h-317v834h-123z" />
<glyph unicode="&#x400;" horiz-adv-x="1153" d="M145 0v1458h885v-311h-561v-258h545v-301h-545v-277h561v-311h-885zM301 1800l133 191l449 -336l-111 -160z" />
<glyph unicode="&#x401;" horiz-adv-x="1153" d="M145 0v1458h885v-311h-561v-258h545v-301h-545v-277h561v-311h-885zM256 1741q0 63 41.5 105t103.5 42t105 -43t43 -104q0 -60 -44 -103t-104 -43q-61 0 -103 43t-42 103zM618 1741q0 63 41.5 105t104.5 42q60 0 103.5 -43t43.5 -104q0 -60 -43.5 -103t-103.5 -43 q-62 0 -104 42.5t-42 103.5z" />
<glyph unicode="&#x402;" horiz-adv-x="1497" d="M35 1139v319h973v-319h-324v-195q171 29 299 29q401 0 401 -461q0 -217 -139 -371q-139 -151 -371 -151v305q87 0 134 57t47 160q0 90 -31 124t-98 34q-106 0 -242 -31v-639h-326v1139h-323z" />
<glyph unicode="&#x403;" horiz-adv-x="956" d="M145 0v1458h777v-319h-453v-1139h-324zM254 1655l448 336l134 -191l-469 -305z" />
<glyph unicode="&#x404;" horiz-adv-x="1263" d="M86 731q0 315 215 533q216 219 524 219q153 0 349 -47v-357q-195 82 -349 82q-137 0 -240 -76.5t-145 -203.5h537v-301h-537q43 -127 147 -204t238 -77q148 0 349 80v-354q-190 -48 -349 -48q-307 0 -524 220q-215 218 -215 534z" />
<glyph unicode="&#x405;" horiz-adv-x="1136" d="M111 1038q0 200 131 322q132 123 336 123q225 0 385 -127v-379q-229 186 -404 186q-49 0 -84 -28t-35 -74q0 -39 54.5 -77.5t154.5 -82.5q59 -24 106 -48.5t102.5 -65.5t92.5 -85.5t62 -109t24 -137.5q0 -207 -141 -342q-142 -136 -358 -136q-234 0 -406 152v401 q69 -78 191 -157q128 -78 231 -78q67 0 111.5 34t44.5 89q0 29 -15.5 53.5t-48 45.5t-64 37t-84.5 40.5t-87 42.5q-105 59 -146 88q-69 49 -111 131.5t-42 181.5z" />
<glyph unicode="&#x406;" horiz-adv-x="614" d="M145 0v1458h324v-1458h-324z" />
<glyph unicode="&#x407;" horiz-adv-x="614" d="M-16 1741q0 63 41.5 105t103.5 42q61 0 104 -43t43 -104q0 -60 -43.5 -103t-103.5 -43q-61 0 -103 43t-42 103zM145 0v1458h324v-1458h-324zM346 1741q0 63 41.5 105t104.5 42q60 0 103.5 -43t43.5 -104q0 -60 -43.5 -103t-103.5 -43q-62 0 -104 42.5t-42 103.5z" />
<glyph unicode="&#x408;" horiz-adv-x="866" d="M66 6v344q77 -41 157 -41q78 0 125 50.5t47 146.5v952h326v-960q0 -251 -143 -385q-142 -136 -357 -136q-53 0 -155 29z" />
<glyph unicode="&#x409;" horiz-adv-x="1996" d="M35 -10v332q78 0 126 50t48 146v940h1030v-534h197q207 0 352 -127q143 -125 143 -336t-143 -336t-352 -125h-521v1139h-380v-629q0 -250 -144 -385q-141 -135 -356 -135zM1239 307h186q79 0 128 41.5t49 112.5t-49 112t-128 41h-186v-307z" />
<glyph unicode="&#x40a;" horiz-adv-x="1994" d="M145 0v1458h324v-534h444v534h324v-534h197q207 0 352 -127q143 -125 143 -336t-143 -336t-352 -125h-521v602h-444v-602h-324zM1237 307h186q79 0 127.5 41.5t48.5 112.5t-48.5 112t-127.5 41h-186v-307z" />
<glyph unicode="&#x40b;" horiz-adv-x="1499" d="M35 1139v319h973v-319h-324v-195q171 29 301 29q395 0 395 -461v-512h-317v487q0 183 -135 183q-108 0 -244 -31v-639h-326v1139h-323z" />
<glyph unicode="&#x40c;" horiz-adv-x="1349" d="M145 0v1458h324v-569h31q67 134 104 182l287 387h397l-471 -622q114 -43 213 -142q62 -59 127 -202q24 -50 43 -119q26 -94 31 -119l29 -129q2 -9 28 -125h-332l-20 98q-17 80 -23 103q-7 42 -26 94q-19 61 -39 90q-23 38 -59 76t-74 55q-108 51 -246 51v-567h-324z M377 1655l448 336l133 -191l-469 -305z" />
<glyph unicode="&#x40d;" horiz-adv-x="1456" d="M145 0v1458h326v-643q0 -53 -8 -170h10q63 102 92 146l482 667h264v-1458h-324v692q0 57 6 156h-8q-60 -99 -98 -150l-506 -698h-236zM440 1800l133 191l449 -336l-111 -160z" />
<glyph unicode="&#x40e;" horiz-adv-x="1339" d="M14 1458h371l217 -373q29 -61 62 -137h14q15 57 61 135l217 375h369l-821 -1458h-354l354 610zM281 1835l182 86q41 -92 89 -124t116 -32q31 -1 53.5 3.5t49 20t52.5 48.5t54 86l178 -88q-63 -141 -165.5 -210t-221.5 -69t-221.5 69t-165.5 210z" />
<glyph unicode="&#x40f;" horiz-adv-x="1386" d="M145 0v1458h324v-1139h449v1139h323v-1458h-414v-360h-272v360h-410z" />
<glyph unicode="&#x410;" horiz-adv-x="1546" d="M18 0l633 1458h244l633 -1458h-363l-116 297h-551l-117 -297h-363zM612 596h318l-76 207q-23 61 -74 231h-18q0 -2 -27 -94q-28 -96 -45 -139z" />
<glyph unicode="&#x411;" horiz-adv-x="1226" d="M145 0v1458h914v-319h-590v-215h197q207 0 352 -127q143 -125 143 -336t-143 -336t-352 -125h-521zM469 307h186q79 0 127.5 41.5t48.5 112.5t-48.5 112t-127.5 41h-186v-307z" />
<glyph unicode="&#x412;" horiz-adv-x="1232" d="M145 0v1458h461q240 0 367 -127t127 -311q0 -157 -115 -260q78 -55 121 -137.5t43 -173.5q0 -211 -143 -330q-140 -119 -353 -119h-508zM467 307h176q80 0 128 38t48 108q0 67 -49 103t-135 36h-168v-285zM467 885h156q71 0 112 34.5t41 100.5q0 60 -45.5 96.5 t-114.5 36.5h-149v-268z" />
<glyph unicode="&#x413;" horiz-adv-x="956" d="M145 0v1458h777v-319h-453v-1139h-324z" />
<glyph unicode="&#x414;" horiz-adv-x="1554" d="M61 319h74q62 0 121 185q59 189 59 313v641h1014v-1139h164v-679h-272v360h-887v-360h-273v679zM526 319h480v820h-367v-330q0 -267 -113 -490z" />
<glyph unicode="&#x415;" horiz-adv-x="1153" d="M145 0v1458h885v-311h-561v-258h545v-301h-545v-277h561v-311h-885z" />
<glyph unicode="&#x416;" horiz-adv-x="2082" d="M61 0q23 106 27 125l29 129q8 43 30 119q18 66 43 121q63 138 127 202q96 96 213 140l-469 622h398l284 -387q49 -65 107 -182h29v569h323v-569h31q67 134 104 182l287 387h397l-469 -622q117 -44 211 -142q35 -34 70 -92t57 -110q24 -50 43 -119q26 -94 31 -121l29 -129 q5 -21 28 -123h-331l-21 98q-22 101 -22 103q-6 36 -27 94q-19 61 -39 90q-23 38 -59 76t-74 55q-108 51 -246 51v-567h-323v567q-136 0 -244 -51q-69 -30 -135 -131q-17 -28 -39 -90q-16 -53 -27 -94l-20 -103l-21 -98h-332z" />
<glyph unicode="&#x417;" horiz-adv-x="1067" d="M98 35v346q163 -82 369 -82q87 0 136.5 43t49.5 121q0 77 -75.5 117.5t-202.5 40.5h-86v299h106q96 0 156.5 33t60.5 83q0 59 -40 92t-105 33q-172 0 -352 -82v346q171 58 352 58q203 0 338 -129q137 -128 137 -326q0 -140 -106 -246q147 -111 147 -309q0 -214 -145 -356 q-146 -140 -371 -140q-183 0 -369 58z" />
<glyph unicode="&#x418;" horiz-adv-x="1456" d="M145 0v1458h326v-643q0 -53 -8 -170h10q63 102 92 146l482 667h264v-1458h-324v692q0 57 6 156h-8q-60 -99 -98 -150l-506 -698h-236z" />
<glyph unicode="&#x419;" horiz-adv-x="1456" d="M145 0v1458h326v-643q0 -53 -8 -170h10q63 102 92 146l482 667h264v-1458h-324v692q0 57 6 156h-8q-60 -99 -98 -150l-506 -698h-236zM348 1835l182 86q41 -92 89 -124t116 -32q31 -1 53.5 3.5t49 20t52.5 48.5t54 86l178 -88q-63 -141 -165.5 -210t-221.5 -69t-221.5 69 t-165.5 210z" />
<glyph unicode="&#x41a;" horiz-adv-x="1349" d="M145 0v1458h324v-569h31q67 134 104 182l287 387h397l-471 -622q114 -43 213 -142q62 -59 127 -202q24 -50 43 -119q26 -94 31 -119l29 -129q2 -9 28 -125h-332l-20 98q-17 80 -23 103q-7 42 -26 94q-19 61 -39 90q-23 38 -59 76t-74 55q-108 51 -246 51v-567h-324z" />
<glyph unicode="&#x41b;" horiz-adv-x="1384" d="M35 -10v332q78 0 126 50t48 146v940h1030v-1458h-324v1139h-380v-629q0 -250 -144 -385q-141 -135 -356 -135z" />
<glyph unicode="&#x41c;" horiz-adv-x="1705" d="M145 0v1458h224l485 -485l485 485h224v-1458h-324v645q0 138 16 301h-14q-108 -153 -172 -217l-215 -213l-213 213q-64 64 -172 217h-16q16 -163 16 -301v-645h-324z" />
<glyph unicode="&#x41d;" horiz-adv-x="1386" d="M145 0v1458h324v-534h449v534h323v-1458h-323v602h-449v-602h-324z" />
<glyph unicode="&#x41e;" horiz-adv-x="1646" d="M86 729q0 317 215 535q216 219 522 219q310 0 523 -219q215 -218 215 -535q0 -316 -215 -534q-212 -218 -523 -218q-307 0 -522 218t-215 534zM414 729q0 -179 114 -305q116 -125 295 -125q180 0 293 125q115 127 115 305t-115 305t-293 127q-180 0 -295 -127 q-114 -126 -114 -305z" />
<glyph unicode="&#x41f;" horiz-adv-x="1386" d="M145 0v1458h1096v-1458h-323v1139h-449v-1139h-324z" />
<glyph unicode="&#x420;" horiz-adv-x="1189" d="M145 0v1458h437q261 0 405 -141q146 -140 146 -350q0 -250 -160 -377q-158 -125 -410 -125h-96v-465h-322zM467 784h113q103 0 163 49t60 134q0 79 -61 126.5t-164 47.5h-111v-357z" />
<glyph unicode="&#x421;" horiz-adv-x="1263" d="M86 731q0 315 215 533q216 219 524 219q162 0 349 -94v-390q-186 162 -349 162q-182 0 -295 -125q-114 -126 -114 -305q0 -181 114 -307q113 -125 295 -125q166 0 349 162v-389q-188 -95 -349 -95q-307 0 -524 220q-215 218 -215 534z" />
<glyph unicode="&#x422;" horiz-adv-x="1042" d="M35 1139v319h973v-319h-324v-1139h-326v1139h-323z" />
<glyph unicode="&#x423;" horiz-adv-x="1339" d="M14 1458h371l217 -373q29 -61 62 -137h14q15 57 61 135l217 375h369l-821 -1458h-354l354 610z" />
<glyph unicode="&#x424;" horiz-adv-x="1646" d="M86 729q0 145 54 266t134 189q73 61 166 104q140 66 222 66v162h323v-162q84 0 219 -66q93 -43 166 -104q83 -67 137 -188t54 -267t-54 -267t-137 -188q-73 -61 -166 -104q-140 -66 -219 -66v-163h-323v163q-14 0 -46.5 5.5t-87.5 23.5t-112 45.5t-117 77t-106.5 112 t-76.5 156.5t-30 205zM414 729q0 -83 30.5 -149.5t77.5 -98.5q82 -57 140 -57v610q-17 0 -43.5 -7t-63 -28.5t-67.5 -53.5t-52.5 -88.5t-21.5 -127.5zM985 424q55 0 137 57q49 32 80 98t31 150q0 71 -22 127.5t-53 88.5t-68 53.5t-63 28.5t-42 7v-610z" />
<glyph unicode="&#x425;" horiz-adv-x="1392" d="M14 0l488 758l-449 700h393l187 -297q36 -63 55 -114h17q22 58 55 110l188 301h393l-448 -698l485 -760h-391l-227 360q-39 53 -55 103h-19q-40 -88 -53 -107l-225 -356h-394z" />
<glyph unicode="&#x426;" horiz-adv-x="1439" d="M145 0v1458h324v-1139h449v1139h323v-1139h137v-679h-272v360h-961z" />
<glyph unicode="&#x427;" horiz-adv-x="1290" d="M119 946v512h321v-487q0 -183 135 -183q110 0 246 31v639h324v-1458h-324v514q-171 -29 -303 -29q-399 0 -399 461z" />
<glyph unicode="&#x428;" horiz-adv-x="2054" d="M145 0v1458h324v-1139h397v1139h324v-1139h395v1139h324v-1458h-1764z" />
<glyph unicode="&#x429;" horiz-adv-x="2107" d="M145 0v1458h324v-1139h397v1139h324v-1139h395v1139h324v-1139h137v-679h-272v360h-1629z" />
<glyph unicode="&#x42a;" horiz-adv-x="1429" d="M35 1139v319h637v-534h196q208 0 353 -127q143 -125 143 -336t-143 -336t-353 -125h-520v1139h-313zM672 307h186q79 0 127.5 41.5t48.5 112.5t-48.5 112t-127.5 41h-186v-307z" />
<glyph unicode="&#x42b;" horiz-adv-x="1808" d="M145 0v1458h324v-534h197q207 0 352 -127q143 -125 143 -336t-143 -336t-352 -125h-521zM469 307h186q79 0 127.5 41.5t48.5 112.5t-48.5 112t-127.5 41h-186v-307zM1339 0v1458h324v-1458h-324z" />
<glyph unicode="&#x42c;" horiz-adv-x="1226" d="M145 0v1458h324v-534h197q207 0 352 -127q143 -125 143 -336t-143 -336t-352 -125h-521zM469 307h186q79 0 127.5 41.5t48.5 112.5t-48.5 112t-127.5 41h-186v-307z" />
<glyph unicode="&#x42d;" horiz-adv-x="1263" d="M90 25v354q201 -80 348 -80q134 0 238 77t147 204h-536v301h536q-42 127 -145 203.5t-240 76.5q-153 0 -348 -82v357q196 47 348 47q309 0 525 -219q215 -218 215 -533q0 -316 -215 -534q-217 -220 -525 -220q-158 0 -348 48z" />
<glyph unicode="&#x42e;" horiz-adv-x="2260" d="M145 0v1458h324v-569h248q52 254 254 426q198 168 467 168q309 0 522 -219q215 -218 215 -535q0 -316 -215 -534q-212 -218 -522 -218q-273 0 -475 175q-204 177 -250 440h-244v-592h-324zM1028 729q0 -178 115 -305q116 -125 295 -125q180 0 293 125q114 126 114 305 t-114 305q-115 127 -293 127q-180 0 -295 -127t-115 -305z" />
<glyph unicode="&#x42f;" horiz-adv-x="1288" d="M25 0l407 573q-124 57 -193 168.5t-69 253.5q0 199 133 332q134 131 385 131h455v-1458h-324v526h-33l-360 -526h-401zM496 995q0 -75 51.5 -120.5t138.5 -45.5h133v326h-131q-87 0 -139.5 -44t-52.5 -116z" />
<glyph unicode="&#x430;" horiz-adv-x="1142" d="M78 332q0 158 119 255t329 97q84 0 172 -18v51q0 49 -53 87t-119 38q-104 0 -168 -21q-75 -21 -155 -63v295q174 73 323 73q213 0 351 -114q139 -115 139 -307v-705h-285l-14 90q-104 -113 -254 -113q-199 0 -292 89t-93 266zM373 350q0 -112 129 -112q90 0 146.5 56 t56.5 138v25q-106 16 -177 16q-73 0 -114 -34t-41 -89z" />
<glyph unicode="&#x431;" horiz-adv-x="1296" d="M109 545q-11 520 221 749q68 68 186 121q117 51 244 86q93 25 317 66l119 20v-297l-68 -12q-140 -24 -206 -39l-172 -39q-200 -47 -209 -98q85 24 141 24q227 0 383 -170t156 -407q0 -235 -160 -406q-156 -166 -397 -166q-242 0 -398 166q-157 168 -157 402zM432 545 q0 -110 68 -187t166 -77q99 0 165 76t66 192q0 117 -68 195.5t-163 78.5t-166 -80q-68 -77 -68 -198z" />
<glyph unicode="&#x432;" horiz-adv-x="1112" d="M127 0v1102h422q206 0 315 -88.5t109 -241.5q0 -115 -84 -199q123 -102 123 -233q0 -170 -121 -256q-122 -84 -305 -84h-459zM444 248h136q48 0 76 26.5t28 73.5q0 96 -111 96h-129v-196zM444 674h121q86 0 86 92q0 40 -26.5 65t-65.5 25h-115v-182z" />
<glyph unicode="&#x433;" horiz-adv-x="821" d="M127 0v1102h678v-273h-361v-829h-317z" />
<glyph unicode="&#x434;" horiz-adv-x="1421" d="M66 268h86q33 0 71 133q39 127 39 215v486h916v-834h178v-639h-271v371h-749v-371h-270v639zM500 268h360v568h-280v-224q0 -176 -80 -344z" />
<glyph unicode="&#x435;" horiz-adv-x="1161" d="M70 573q0 252 141 402q142 151 381 151q207 0 350 -149t143 -424q0 -38 -4 -84h-678q12 -97 73 -154t153 -57q184 0 340 78v-303q-165 -56 -340 -56q-247 0 -404 160q-155 158 -155 436zM401 686h383q-7 81 -61.5 132.5t-128.5 51.5q-75 0 -129 -51t-64 -133z" />
<glyph unicode="&#x436;" horiz-adv-x="1640" d="M59 0l17 88l22 123q6 31 31 115q20 67 49 114q68 111 170 166l-285 496h347l139 -271q41 -77 67 -169h43v440h316v-440h47q20 82 65 167l140 273h346l-285 -496q143 -79 199 -229q33 -90 43 -135q13 -47 35 -158l16 -84h-328l-8 55q-11 85 -16 103q-5 31 -25 88 q-25 76 -77 110.5t-152 42.5v-399h-316v399q-120 0 -184 -71q-26 -29 -43 -82q-13 -37 -26 -88l-15 -103l-8 -55h-324z" />
<glyph unicode="&#x437;" horiz-adv-x="1044" d="M82 27v276q122 -55 383 -55q160 0 160 112q0 107 -211 107h-164v217h182q76 0 116 22t40 60t-36.5 65t-86.5 27q-220 0 -369 -57v276q203 49 373 49q192 0 317 -98q129 -94 129 -258q0 -86 -79 -180q114 -102 114 -230q0 -174 -137 -278q-135 -105 -344 -105 q-167 0 -387 50z" />
<glyph unicode="&#x438;" horiz-adv-x="1241" d="M127 0v1102h317v-246q0 -156 -4 -270h17l125 174l268 342h264v-1102h-317v258q0 65 4 291h-17q-7 -15 -133 -197l-282 -352h-242z" />
<glyph unicode="&#x439;" horiz-adv-x="1241" d="M127 0v1102h317v-246q0 -156 -4 -270h17l125 174l268 342h264v-1102h-317v258q0 65 4 291h-17q-7 -15 -133 -197l-282 -352h-242zM233 1479l183 86q41 -92 89 -124t116 -32q41 -1 70 7.5t65.5 45t72.5 105.5l179 -88q-63 -141 -165.5 -210t-221.5 -69t-222 69t-166 210z " />
<glyph unicode="&#x43a;" horiz-adv-x="1107" d="M127 0v1102h322v-440h40q25 84 68 167l139 273h346l-284 -496q55 -29 96 -74q44 -45 69 -86t44 -104q22 -68 30 -106l27 -121l25 -115h-326l-8 55l-15 103q-6 37 -24 88q-25 76 -76 110.5t-151 42.5v-399h-322z" />
<glyph unicode="&#x43b;" horiz-adv-x="1193" d="M16 -12v276q63 5 100.5 35.5t37.5 85.5v717h913v-1102h-317v836h-279v-455q0 -187 -129 -289q-128 -101 -326 -104z" />
<glyph unicode="&#x43c;" horiz-adv-x="1433" d="M127 0v1102h227l365 -336l360 336h228v-1102h-318v602l-270 -244l-275 246v-604h-317z" />
<glyph unicode="&#x43d;" horiz-adv-x="1185" d="M127 0v1102h317v-387h297v387h318v-1102h-318v440h-297v-440h-317z" />
<glyph unicode="&#x43e;" horiz-adv-x="1251" d="M70 545q0 252 161 416q162 165 394 165q241 0 397 -170q160 -171 160 -407q0 -235 -160 -406q-156 -166 -397 -166q-242 0 -398 166q-157 168 -157 402zM393 545q0 -110 68 -187t166 -77q99 0 165 76t66 192q0 117 -68 195.5t-163 78.5t-166 -80q-68 -77 -68 -198z" />
<glyph unicode="&#x43f;" d="M127 0v1102h913v-1102h-317v836h-279v-836h-317z" />
<glyph unicode="&#x440;" horiz-adv-x="1306" d="M127 -442v1544h293l10 -98q122 122 283 122q242 0 383 -170t141 -405q0 -237 -141 -406q-140 -168 -383 -168q-141 0 -269 78v-497h-317zM444 412q94 -131 242 -131q105 0 166 73t61 197q0 120 -62 196t-165 76q-107 0 -174.5 -77.5t-67.5 -194.5v-139z" />
<glyph unicode="&#x441;" horiz-adv-x="978" d="M70 549q0 249 157 414q159 163 394 163q125 0 258 -71v-363q-125 131 -252 131q-92 0 -164 -78q-70 -76 -70 -196q0 -108 68 -191q70 -79 166 -79q133 0 252 122v-356q-130 -68 -258 -68q-240 0 -396 166q-155 168 -155 406z" />
<glyph unicode="&#x442;" horiz-adv-x="856" d="M16 829v273h824v-273h-256v-829h-318v829h-250z" />
<glyph unicode="&#x443;" horiz-adv-x="1228" d="M16 1102h351l186 -404q21 -52 37 -104l22 -68h11q42 125 61 172l180 404h348l-725 -1544h-344l303 620z" />
<glyph unicode="&#x444;" horiz-adv-x="1558" d="M70 551q0 130 51 240.5t127 171.5q63 52 155 94q138 61 220 61v447h313v-445q81 0 221 -63q91 -40 156 -94q76 -60 126 -170.5t50 -241.5q0 -130 -50.5 -239t-127.5 -173q-63 -52 -158 -94q-136 -59 -217 -59v-428h-313v428q-82 0 -220 59q-92 42 -155 94 q-77 64 -127.5 173t-50.5 239zM395 551q0 -117 72 -189q74 -71 160 -71v522q-84 0 -158 -74q-74 -71 -74 -188zM932 291q89 0 160 71t71 189t-73 188q-74 74 -158 74v-522z" />
<glyph unicode="&#x445;" horiz-adv-x="1253" d="M14 0l428 573l-389 529h385l123 -174q39 -54 62 -111h14q20 49 63 111l117 174h385l-387 -529l424 -573h-383l-151 211l-72 119h-10q-2 -4 -14.5 -27t-28 -50t-27.5 -42l-154 -211h-385z" />
<glyph unicode="&#x446;" horiz-adv-x="1253" d="M127 0v1102h317v-836h277v836h317v-836h150v-639h-268v373h-793z" />
<glyph unicode="&#x447;" horiz-adv-x="1077" d="M90 707v395h318v-379q0 -111 71 -111q54 0 154 17v473h317v-1102h-317v371q-114 -15 -199 -15q-344 0 -344 351z" />
<glyph unicode="&#x448;" horiz-adv-x="1685" d="M127 0v1102h317v-834h240v834h317v-834h240v834h318v-1102h-1432z" />
<glyph unicode="&#x449;" horiz-adv-x="1773" d="M127 0v1102h317v-834h240v834h317v-834h238v834h317v-834h152v-639h-268v371h-1313z" />
<glyph unicode="&#x44a;" horiz-adv-x="1239" d="M16 829v273h609v-387h118q178 0 297 -101q121 -100 121 -258q0 -160 -121 -260q-122 -96 -297 -96h-436v829h-291zM625 250h112q41 0 71 31t30 75t-30 75.5t-71 31.5h-112v-213z" />
<glyph unicode="&#x44b;" horiz-adv-x="1544" d="M135 0v1102h318v-387h120q178 0 297 -101q121 -100 121 -258q0 -160 -121 -260q-122 -96 -297 -96h-438zM453 250h112q43 0 73 31t30 75t-30 75.5t-73 31.5h-112v-213zM1100 0v1102h317v-1102h-317z" />
<glyph unicode="&#x44c;" horiz-adv-x="1060" d="M127 0v1102h317v-387h121q178 0 297 -101q121 -100 121 -258q0 -160 -121 -260q-122 -96 -297 -96h-438zM444 250h113q43 0 72.5 31t29.5 75t-29.5 75.5t-72.5 31.5h-113v-213z" />
<glyph unicode="&#x44d;" horiz-adv-x="1030" d="M66 33v303q156 -78 340 -78q79 0 142 49.5t89 136.5h-424v218h424q-26 86 -89 135t-142 49q-184 0 -340 -78v303q162 55 340 55q251 0 403 -149q156 -150 156 -424q0 -276 -156 -426q-153 -150 -403 -150q-175 0 -340 56z" />
<glyph unicode="&#x44e;" horiz-adv-x="1867" d="M127 0v1102h317v-410h250q50 195 199 314q150 120 344 120q241 0 399 -168q162 -168 162 -409q0 -238 -162 -406q-159 -166 -399 -166q-195 0 -342 117t-199 301h-252v-395h-317zM1001 545q0 -110 68 -187q71 -77 170 -77q100 0 166 75q70 76 70 193q0 118 -72 196 t-164 78q-97 0 -168 -80q-70 -76 -70 -198z" />
<glyph unicode="&#x44f;" horiz-adv-x="1105" d="M10 0l293 426q-94 54 -145.5 136.5t-51.5 180.5q0 162 116 260.5t325 98.5h432v-1102h-317v385l-261 -385h-391zM432 743q0 -51 32 -84.5t83 -33.5h115v235h-115q-51 0 -83 -33t-32 -84z" />
<glyph unicode="&#x450;" horiz-adv-x="1161" d="M70 573q0 252 141 402q142 151 381 151q207 0 350 -149t143 -424q0 -38 -4 -84h-678q12 -97 73 -154t153 -57q184 0 340 78v-303q-165 -56 -340 -56q-247 0 -404 160q-155 158 -155 436zM305 1444l133 190l449 -336l-111 -159zM401 686h383q-7 81 -61.5 132.5 t-128.5 51.5q-75 0 -129 -51t-64 -133z" />
<glyph unicode="&#x451;" horiz-adv-x="1161" d="M70 573q0 252 141 402q142 151 381 151q207 0 350 -149t143 -424q0 -38 -4 -84h-678q12 -97 73 -154t153 -57q184 0 340 78v-303q-165 -56 -340 -56q-247 0 -404 160q-155 158 -155 436zM270 1384q0 63 42 105.5t104 42.5q61 0 104 -43t43 -105q0 -60 -43.5 -102.5 t-103.5 -42.5q-61 0 -103.5 42.5t-42.5 102.5zM401 686h383q-7 81 -61.5 132.5t-128.5 51.5q-75 0 -129 -51t-64 -133zM633 1384q0 63 41 105.5t104 42.5q60 0 104 -43.5t44 -104.5q0 -60 -44 -102.5t-104 -42.5q-62 0 -103.5 41.5t-41.5 103.5z" />
<glyph unicode="&#x452;" horiz-adv-x="1226" d="M6 1303v114h123v148h317v-148h224v-114h-224v-285q108 108 230 108q422 0 422 -491v-649q0 -193 -109 -320t-336 -127v293q62 0 96.5 36.5t34.5 98.5v641q0 215 -166 215q-36 0 -78.5 -23t-68.5 -50l-25 -23v-727h-317v1303h-123z" />
<glyph unicode="&#x453;" horiz-adv-x="821" d="M127 0v1102h678v-273h-361v-829h-317zM164 1298l448 336l133 -190l-469 -305z" />
<glyph unicode="&#x454;" horiz-adv-x="1030" d="M66 553q0 274 153 424q155 149 406 149q178 0 340 -55v-303q-156 78 -340 78q-80 0 -143 -49t-89 -135h424v-218h-424q26 -86 89.5 -136t142.5 -50q184 0 340 78v-303q-165 -56 -340 -56q-250 0 -406 150q-153 150 -153 426z" />
<glyph unicode="&#x455;" horiz-adv-x="911" d="M98 774q0 149 109 252q109 100 272 100q140 0 291 -65v-305q-158 96 -278 96q-28 0 -49 -16t-21 -41q0 -28 54 -68t147 -94q82 -45 142 -126t60 -169q0 -159 -110 -260q-107 -101 -271 -101q-162 0 -327 70v309q191 -102 313 -102q31 0 51.5 15.5t20.5 41.5 q0 52 -203 164q-72 42 -137 123q-64 79 -64 176z" />
<glyph unicode="&#x456;" horiz-adv-x="573" d="M100 1346q0 75 55 128.5t130 53.5q78 0 132 -53.5t54 -128.5t-55.5 -130t-130.5 -55t-130 55t-55 130zM127 0v1102h317v-1102h-317z" />
<glyph unicode="&#x457;" horiz-adv-x="573" d="M-45 1384q0 63 41.5 105.5t103.5 42.5t105 -43t43 -105q0 -60 -44 -102.5t-104 -42.5q-61 0 -103 42.5t-42 102.5zM127 0v1102h317v-1102h-317zM317 1384q0 63 41.5 105.5t104.5 42.5q60 0 103.5 -43.5t43.5 -104.5q0 -60 -43.5 -102.5t-103.5 -42.5q-62 0 -104 42 t-42 103z" />
<glyph unicode="&#x458;" horiz-adv-x="591" d="M-111 -141q71 -27 131 -27q62 0 94.5 36t32.5 99v1135h318v-1116q0 -194 -105 -320q-103 -127 -311 -127q-63 0 -160 23v297zM121 1346q0 75 54.5 128.5t129.5 53.5q78 0 132.5 -53.5t54.5 -128.5t-56 -130t-131 -55t-129.5 55t-54.5 130z" />
<glyph unicode="&#x459;" horiz-adv-x="1683" d="M16 -12v276q63 5 100.5 35.5t37.5 85.5v717h915v-387h117q178 0 297 -101q123 -99 123 -258q0 -160 -121 -260q-122 -96 -299 -96h-434v836h-281v-455q0 -187 -129 -289q-128 -101 -326 -104zM1069 250h111q63 -6 89 50t0 112.5t-89 50.5h-111v-213z" />
<glyph unicode="&#x45a;" horiz-adv-x="1673" d="M127 0v1102h317v-387h297v387h318v-387h119q176 0 295 -101q122 -98 122 -258q0 -161 -120 -260q-122 -96 -297 -96h-437v440h-297v-440h-317zM1059 250h112q43 0 73 31t30 75t-30 75.5t-73 31.5h-112v-213z" />
<glyph unicode="&#x45b;" horiz-adv-x="1226" d="M6 1303v114h123v148h317v-148h224v-114h-224v-285q108 108 230 108q422 0 422 -491v-635h-314v608q0 215 -166 215q-36 0 -78.5 -23t-68.5 -50l-25 -23v-727h-317v1303h-123z" />
<glyph unicode="&#x45c;" horiz-adv-x="1107" d="M127 0v1102h322v-440h40q25 84 68 167l139 273h346l-284 -496q55 -29 96 -74q44 -45 69 -86t44 -104q22 -68 30 -106l27 -121l25 -115h-326l-8 55l-15 103q-6 37 -24 88q-25 76 -76 110.5t-151 42.5v-399h-322zM262 1298l449 336l133 -190l-469 -305z" />
<glyph unicode="&#x45d;" horiz-adv-x="1241" d="M127 0v1102h317v-246q0 -156 -4 -270h17l125 174l268 342h264v-1102h-317v258q0 65 4 291h-17q-7 -15 -133 -197l-282 -352h-242zM332 1444l133 190l448 -336l-110 -159z" />
<glyph unicode="&#x45e;" horiz-adv-x="1228" d="M16 1102h351l186 -404q21 -52 37 -104l22 -68h11q42 125 61 172l180 404h348l-725 -1544h-344l303 620zM233 1479l183 86q41 -92 89 -124t116 -32q41 -1 70 7.5t65.5 45t72.5 105.5l179 -88q-63 -141 -165.5 -210t-221.5 -69t-222 69t-166 210z" />
<glyph unicode="&#x45f;" horiz-adv-x="1169" d="M127 0v1102h317v-836h281v836h317v-1102h-321v-373h-270v373h-324z" />
<glyph unicode="&#x490;" horiz-adv-x="956" d="M145 0v1458h504v361h273v-680h-453v-1139h-324z" />
<glyph unicode="&#x491;" horiz-adv-x="821" d="M127 0v1102h410v356h268v-629h-361v-829h-317z" />
<glyph unicode="&#x4d9;" horiz-adv-x="1150" d="M68 551q0 38 4 84h678q-12 97 -73 154t-153 57q-184 0 -340 -78v303q162 55 340 55q248 0 404 -159q155 -158 155 -437q0 -251 -141 -401q-143 -152 -381 -152q-206 0 -350 150q-143 149 -143 424zM369 418q7 -81 61.5 -133t128.5 -52q75 0 128.5 51.5t64.5 133.5h-383z " />
<glyph unicode="&#x2000;" horiz-adv-x="995" />
<glyph unicode="&#x2001;" horiz-adv-x="1991" />
<glyph unicode="&#x2002;" horiz-adv-x="995" />
<glyph unicode="&#x2003;" horiz-adv-x="1991" />
<glyph unicode="&#x2004;" horiz-adv-x="663" />
<glyph unicode="&#x2005;" horiz-adv-x="497" />
<glyph unicode="&#x2006;" horiz-adv-x="331" />
<glyph unicode="&#x2007;" horiz-adv-x="331" />
<glyph unicode="&#x2008;" horiz-adv-x="248" />
<glyph unicode="&#x2009;" horiz-adv-x="398" />
<glyph unicode="&#x200a;" horiz-adv-x="110" />
<glyph unicode="&#x2010;" horiz-adv-x="716" d="M68 469v297h581v-297h-581z" />
<glyph unicode="&#x2011;" horiz-adv-x="716" d="M68 469v297h581v-297h-581z" />
<glyph unicode="&#x2012;" horiz-adv-x="716" d="M68 469v297h581v-297h-581z" />
<glyph unicode="&#x2013;" horiz-adv-x="1071" d="M68 469v297h936v-297h-936z" />
<glyph unicode="&#x2014;" horiz-adv-x="1878" d="M68 469v297h1742v-297h-1742z" />
<glyph unicode="&#x2018;" horiz-adv-x="583" d="M41 924q127 392 295 663l207 -33q-113 -331 -154 -606z" />
<glyph unicode="&#x2019;" horiz-adv-x="583" d="M41 956q112 330 154 607l348 24q-127 -392 -295 -663z" />
<glyph unicode="&#x201a;" horiz-adv-x="583" d="M41 -334q113 331 154 606l348 25q-127 -394 -295 -664z" />
<glyph unicode="&#x201c;" horiz-adv-x="1034" d="M41 924q127 392 295 663l207 -33q-113 -331 -154 -606zM492 924q128 395 294 663l207 -33q-111 -325 -153 -606z" />
<glyph unicode="&#x201d;" horiz-adv-x="1034" d="M41 956q112 330 154 607l348 24q-127 -392 -295 -663zM492 956q111 325 153 607l348 24q-127 -392 -295 -663z" />
<glyph unicode="&#x201e;" horiz-adv-x="1034" d="M41 -334q113 331 154 606l348 25q-127 -394 -295 -664zM492 -334q111 325 153 606l348 25q-127 -394 -295 -664z" />
<glyph unicode="&#x2020;" horiz-adv-x="1105" d="M104 848v309h293v404h314v-404h290v-309h-290v-1055h-314v1055h-293z" />
<glyph unicode="&#x2021;" horiz-adv-x="1105" d="M104 301v307h293v246h-293v305h293v402h314v-402h290v-305h-290v-246h290v-307h-290v-508h-314v508h-293z" />
<glyph unicode="&#x2022;" horiz-adv-x="980" d="M121 711q0 156 106 262q107 110 262 110t263 -108t108 -264q0 -157 -108 -265t-263 -108q-154 0 -262 108q-106 106 -106 265z" />
<glyph unicode="&#x2026;" horiz-adv-x="1679" d="M121 170q0 78 52.5 131t127.5 53t128.5 -54.5t53.5 -129.5q0 -77 -53 -128.5t-129 -51.5t-128 51.5t-52 128.5zM657 170q-4 57 30 103t83 66.5t105.5 12t93.5 -50.5q53 -53 53 -131t-52 -129t-130 -51q-76 0 -129.5 51.5t-53.5 128.5zM1192 170q0 75 54 129.5t128 54.5 q75 0 130 -54.5t55 -129.5q0 -78 -53 -129t-132 -51q-74 0 -128 53t-54 127z" />
<glyph unicode="&#x202f;" horiz-adv-x="398" />
<glyph unicode="&#x2030;" horiz-adv-x="2318" d="M55 1075q0 393 332 393q328 0 328 -393q0 -391 -328 -391q-332 0 -332 391zM276 1075q0 -182 111 -182t111 182q0 185 -111 185t-111 -185zM338 66l713 1386l176 -94l-711 -1389zM874 379q0 391 330 391q164 0 248 -93t84 -298q0 -391 -332 -391q-330 0 -330 391z M1096 379q0 -182 108 -182q113 0 113 182t-113 182q-108 0 -108 -182zM1602 379q0 391 329 391q164 0 248 -93t84 -298q0 -391 -332 -391q-329 0 -329 391zM1823 379q0 -182 108 -182q113 0 113 182t-113 182q-108 0 -108 -182z" />
<glyph unicode="&#x2039;" horiz-adv-x="774" d="M76 551l278 414h344l-280 -414l280 -414h-344z" />
<glyph unicode="&#x203a;" horiz-adv-x="772" d="M76 137l280 414l-280 414h342l278 -414l-278 -414h-342z" />
<glyph unicode="&#x2044;" horiz-adv-x="364" d="M-262 66l713 1386l176 -94l-711 -1389z" />
<glyph unicode="&#x205f;" horiz-adv-x="497" />
<glyph unicode="&#x20ac;" horiz-adv-x="1363" d="M49 504v155h119q-2 14 -2 70q0 10 4 92h-121v156h156q77 227 266 364q195 142 434 142q161 0 348 -94v-390q-201 162 -348 162q-223 0 -340 -184h504v-156h-565q-8 -36 -8 -92q0 -8 4 -70h569v-155h-516q55 -96 147 -151.5t205 -55.5q139 0 348 156v-381 q-188 -95 -348 -95q-248 0 -444 146q-191 145 -262 381h-150z" />
<glyph unicode="&#x2122;" horiz-adv-x="1761" d="M70 1286v172h618v-172h-221v-680h-178v680h-219zM772 606v852h225l234 -545l237 545h226v-852h-183v516l-219 -516h-127l-213 522v-522h-180z" />
<glyph unicode="&#x2202;" horiz-adv-x="1275" d="M86 451q0 254 186 428q187 178 414 178q45 0 57 -2q-100 112 -274 112q-104 0 -221 -32l-68 297q23 9 119 30q95 21 164 21q328 0 520 -219q191 -218 191 -568q0 -113 -23.5 -216.5t-73 -195.5t-121.5 -160t-176 -107.5t-229 -39.5q-199 0 -332 136t-133 338zM414 451 q0 -72 37 -115t100 -43q109 0 199 90q88 91 88 207q0 69 -43 114.5t-109 45.5q-104 0 -188 -93t-84 -206z" />
<glyph unicode="&#x2206;" horiz-adv-x="1417" d="M86 0v199l516 1259h217l512 -1257v-201h-1245zM485 324h443l-160 403q-30 71 -55 178h-11q-24 -91 -57 -178z" />
<glyph unicode="&#x220f;" horiz-adv-x="1355" d="M47 1139v319h1260v-319h-121v-1581h-330v1581h-354v-1581h-330v1581h-125z" />
<glyph unicode="&#x2211;" horiz-adv-x="1273" d="M47 -178l414 719l-414 649v268h1165v-319h-743l369 -592l-379 -666h768v-323h-1180v264z" />
<glyph unicode="&#x221a;" horiz-adv-x="1124" d="M33 426v324h366l68 -263l295 1074h328l-445 -1561h-317l-123 426h-172z" />
<glyph unicode="&#x221e;" horiz-adv-x="1435" d="M68 610q0 174 98 281q101 110 260 110q163 0 289 -141q123 141 297 141q158 0 256 -110q100 -106 100 -281q0 -174 -100 -280q-100 -109 -256 -109q-155 0 -293 144q-145 -142 -293 -142q-157 0 -260 109q-98 107 -98 278zM352 610q0 -49 22.5 -77.5t59.5 -28.5 q57 0 135 106q-70 107 -135 107q-35 0 -58.5 -31t-23.5 -76zM866 606q74 -102 133 -102q37 0 59.5 28.5t22.5 77.5t-22.5 78t-59.5 29q-51 0 -133 -111z" />
<glyph unicode="&#x222b;" horiz-adv-x="821" d="M29 -117q110 -35 157 -35q31 0 48.5 27.5t17.5 65.5v1128q0 178 90 297q89 117 289 117q52 0 160 -27v-311q-103 35 -160 35q-31 0 -49.5 -28t-18.5 -65v-1126q0 -181 -90 -297q-89 -117 -287 -117q-44 0 -157 25v311z" />
<glyph unicode="&#x2248;" d="M25 195q188 286 358 286q80 0 211 -73q136 -74 162 -74q32 0 63 22q27 19 43 39q9 11 58 80l223 -158q-181 -284 -357 -284q-80 0 -213 71q-133 74 -159 74q-33 0 -64 -22q-29 -20 -45 -43q-14 -17 -55 -76zM25 659q189 287 358 287q78 0 211 -74q134 -73 162 -73 q32 0 63 22q27 19 43 39q9 11 58 80l223 -158q-181 -284 -357 -284q-80 0 -213 71q-133 74 -159 74q-33 0 -64 -22q-29 -20 -45 -43q-14 -17 -55 -76z" />
<glyph unicode="&#x2260;" d="M76 150v309h319l51 100h-370v305h528l113 217l248 -129l-47 -88h174v-305h-332l-53 -100h385v-309h-547l-109 -211l-246 118l48 93h-162z" />
<glyph unicode="&#x2264;" d="M74 756v231l1020 434v-329l-523 -222l523 -217v-331zM78 -20v307h1016v-307h-1016z" />
<glyph unicode="&#x2265;" d="M74 -20v307h1013v-307h-1013zM74 322v331l520 217l-520 222v329l1020 -434v-231z" />
<glyph unicode="&#x25ca;" horiz-adv-x="1228" d="M27 614l446 869h275l452 -869l-452 -866h-275zM389 608l225 -399l217 401l-217 414z" />
<glyph unicode="&#x25fc;" horiz-adv-x="1105" d="M0 0v1106h1106v-1106h-1106z" />
</font>
</defs>
</svg>
